<svg xmlns="http://www.w3.org/2000/svg" xmlns:xlink="http://www.w3.org/1999/xlink" id="logo" x="0px" y="0px" viewBox="0 0 898.8 705.8" xml:space="preserve" width="898.8" height="705.8"><metadata><rdf:RDF xmlns:rdf="http://www.w3.org/1999/02/22-rdf-syntax-ns#" xmlns:dc="http://purl.org/dc/elements/1.1/"><rdf:Description><dc:creator>RealFaviconGenerator</dc:creator><dc:source>https://realfavicongenerator.net</dc:source></rdf:Description></rdf:RDF></metadata><path fill="#AD9572" class="firma" d="M309.1,700.7c-3.5,0-6.9-0.1-10.1-0.4h-0.2c-9.3-1.2-19.3-3.9-29.8-8.2c-10.4-4.2-20.7-9.4-30.5-15.3 c-9.9-5.9-19.1-12.7-27.3-20c-8.3-7.4-14.8-14.7-19.5-21.7c-14.3-20.7-6.2-34.8,3.3-42.9c18.1-17.5,60.5-30.3,129.5-39.4 c6.8-1.1,13.5-2,19.9-2.9s13.3-1.6,20.6-2.1c7.7-0.6,16.3-1.3,25.6-2.1c10-0.9,22.4-1.8,36.9-2.9c5.5-0.6,10.3-1,14.2-1.2 c2.3-0.2,3.6-0.4,4.1-0.5l0.8-0.8h0.5c0.5-0.8,1.4-2.5,2.6-5.8l0.1-0.3l0.1-0.3c1.7-3.4,5.5-10.6,10.8-20.8 c5.4-10.3,11.4-21.9,17.8-34.3l0.9-1.7c34.2-67,49.1-95.3,55.7-107.2c3.1-6.3,15.3-29,23.4-44.1c3.7-6.9,6.6-12.3,7.5-14.1 c0.3-0.6,0.6-1.2,0.9-1.7c-19.9,1.4-36.5,2.8-49.4,4c-13.9,1.3-27.2,2.6-39.4,3.7c-9.6,0.9-14.3,1.3-16.6,1.5 c-1.5,1.8-4.5,5.6-10.6,13.2c-7.3,9.1-16.1,20-27,33.2c-9.3,11-16.7,19.8-22,26.1c-5.1,6.2-9.1,11.3-11.7,15.3s-4.8,7.4-6.4,10.4 c-1.6,2.8-3.2,6.2-4.8,9.9c-8.1,18.4-14.7,30.4-20.4,36.6c-4.5,5-9.3,7.5-14.2,7.5c-2.5,0-4.9-0.7-7.3-2l-0.2-0.1l-0.2-0.1 c-4.7-3.2-4.7-9.5-4.7-11.6c0-4.4,0.6-8.7,1.9-13l0.1-0.4l0.2-0.4c2.3-4.6,6-11.1,11.4-19.9c5.3-8.7,11.1-17,17.2-24.8 c3.8-5.4,6.8-9.8,9-13.1c1.8-2.8,3-5.2,3.4-7.3l0.1-0.3l0.1-0.3c2.1-6.3,3.7-13.7,4.8-21.9c1.1-8.3,1.6-16.1,1.6-23v-8.5l-1.9,0.2 c-4.4,0.6-16.7,1.6-37.4,3.3c-18.5,1.5-40.6,3.3-69.6,5.8c-11,1.1-23.5,1.8-37.2,2.1c-13.1,0.3-26.5,0.4-39.9,0.4 c-13.5,0-25.2-0.1-35.8-0.4c-11.1-0.3-19.1-1-24.5-2.2c-32.8-5.8-54.1-14.7-64.9-27.2c-10.6-11.3-13.1-24.6-7.1-38.5 c5.6-13,18.1-26,37-38.6c23.6-15.8,50.9-26.9,80.9-33.1c16.5-3.4,33.1-5.1,49.4-5.1c13.3,0,26.7,1.2,39.9,3.4 c31.7,5.7,58.5,17.2,79.8,34.2c21.5,17.2,36.1,39.5,43.5,66.4l0.1,0.3v0.3c0.6,3.4,1.3,4.9,1.7,5.5l0.2,0.3l0.2,0.3 c0.2,0.4,0.3,0.7,0.5,1.1c1,0,2.1-0.1,3.4-0.1c4.6-0.3,10.1-0.9,16.5-2h0.2h0.2c6.4-0.5,12.2-1.1,17.3-1.6c4.2-0.5,6.4-0.7,7.5-0.8 c0.9-0.7,3.4-2.9,9.2-9.2c6.5-7,14.2-16.2,23-27.1l0.1-0.1c33.1-39.1,64-74.8,92.1-106.2c28-31.3,54.9-59.9,79.8-84.7 c22.7-22.7,40.8-39.4,53.9-49.7c13.9-11,23.9-16.2,31.2-16.4c0.7-0.1,1.4-0.2,2.1-0.2c3.5,0,6.6,1.5,8.8,4.4 c4.3,4.6,6.3,14.4-10,50.1l-0.1,0.2l-0.1,0.2c-2.7,4.8-5.3,9.8-7.8,14.7c-2.5,5-6,11.6-10.5,19.7c-4.3,7.8-10,18-17.4,31.1 c-7.2,12.7-16.6,29.3-28.2,49.7c-19,34-33.9,60.8-45.6,82c-9.3,16.9-14.3,26-16.9,31c24.8-1.1,131.5-6.5,190-9.6h0.1h0.1 c5.5,0,9.7,0.3,12.8,0.9c6,0.8,7.8,1.1,8.7,1.3c3.2,0.8,4.2,3.2,4.4,4.1c0.4,1.5,0.4,3.9-2.1,6.4c-2,2-5.3,3.1-10.2,3.5 c-3.7,0.3-201.7,12.4-207.7,12.7c-3.7,0.2-5.5,0.4-6.4,0.5c-0.8,1.3-2.7,4.5-6.8,12.5c-2.2,4.3-8.6,16.3-15.3,29 c-8.5,16-18.2,34.1-21.8,41.3c-6.9,13.4-13.4,26.5-19.4,38.9c-1.3,2.6-5.6,11.9-9.9,20.8c-5.8,12.2-8.5,18.1-9,19 c-6.8,12.8-13.2,25.2-19,36.8c-4.9,9.8-10.5,21.2-16.7,34c1.8-0.1,3.6-0.1,5-0.2c8.2-0.3,17.9-0.7,29.8-1.2 c13-0.6,146.5-3.1,166.1-3.1H739c20.7,0,39.5,0.3,56.1,0.8c16.8,0.5,28.4,1.1,34.7,1.7c18.5,1.7,30.6,4.1,36.9,7.1 c8.2,3.9,10.8,11.3,7,19.7c-1.7,4-5.2,7.1-10.6,9.3c-4.3,1.7-12,4-23.4,6.8c-21.7,5.4-27.9,6-30.7,6c-0.8,0-1.5-0.1-2.1-0.2 c-3.3-0.7-4.6-3.1-4.7-5c-0.3-4.6,2.9-6.5,21.4-12.9c8-3,14-5.4,18.4-7.2c-1.1,0-2.3-0.1-3.6-0.1c-12.6-0.3-28.6-0.7-47.7-1.2 c-19.5-0.6-40.5-1.1-62.6-1.7c-22.4-0.5-43.8-0.8-63.7-0.8l-193.9,2.2l-4.9,1.1l-11,18.7c-25.6,46.1-48.6,77.8-68.3,94.2 c-5.8,4.6-13.2,9.3-22,13.9c-9,4.6-16.5,7.7-22.9,9.5l-0.2,0.1H341c-6.3,1.1-13.3,2-20.8,2.5C316.3,700.6,312.6,700.7,309.1,700.7z M285,678.9c6.2,1.5,13.8,2.5,22.5,2.7c1.2,0,2.5,0.1,3.6,0.1c7,0,12.9-0.7,17.7-2h0.1c15-3.6,29.8-12.6,43.9-26.7 c3.8-4.4,7.9-9.2,12.3-14.3c4.2-5.1,7.8-9.5,10.5-13.3c2.3-3.5,5.6-8.5,9.5-14.4c3.6-5.5,7.5-11.6,12.8-19.9 c4.3-6.8,8.3-13.3,11.9-19.3c2.5-4.3,4.4-7.8,5.7-10.3l-9,0.4c-75,3.8-133.1,10.7-172.7,20.6c-46.5,11.5-56.3,24-56.3,32.4 c0,2.6,1.4,7.5,8,16c5.8,7.3,12.7,14,20.6,19.8l0.1,0.1c7.4,5.8,16.7,11.3,27.6,16.4C264.9,672.3,275.4,676.2,285,678.9z M399.8,323.4c-0.2,1.6-0.5,6.2-1.2,19.4v0.2c-0.4,4.3-0.7,8.4-1,12.3c3.1-3.7,7.3-8.9,12.8-15.9l0.1-0.1c2.8-3.4,5.6-6.6,8.4-9.7 c2.7-3,5.1-5.8,7.2-8.4c-3.1,0.1-5.7,0.3-7.9,0.6c-4.5,0.6-9.1,1-13.6,1.3C403.3,323.2,401.4,323.4,399.8,323.4z M154.3,319.4 c2.8,0,7.3,0.1,13.6,0.4c6.1,0.3,12.7,0.4,20.1,0.4c7.3,0,14.5-0.1,21.4-0.4c7.1-0.3,13.1-0.7,17.9-1.2h0.3h0.3c5.9,0,16.4-0.7,31-2 c14-1.3,29.2-2.8,46.4-4.6c15.6-1.6,30.4-3,44-4.2c13.1-1.1,21.3-1.9,24.5-2.4h0.2l5.5-0.4c-4.3-19.7-13.4-37.4-27.3-52.6 c-14-15.3-32.1-26.8-53.9-34.3c-11.9-4.3-22.3-7.2-31-8.5c-8.9-1.3-21-2-36.1-2c-15.7,0-28.7,0.8-38.6,2.4 c-9.9,1.6-21.5,4.6-34.4,8.9c-12.9,4.3-24.9,9.5-35.6,15.4s-19.8,12.2-27.3,18.8c-7.3,6.5-12.6,13-15.9,19.3 c-3,5.7-3.8,10.7-2.6,14.9C81.6,303.6,108.4,314.7,154.3,319.4z M727.6,23.2c-3,1.5-8,4.8-16.2,12c-8.4,7.3-18.6,17-30.4,28.8 c-11.7,11.7-24.8,25.3-38.8,40.5c-14.3,15.4-29.1,32-44.2,49.2c-9.3,10.4-20.8,23.6-35.2,40.6c-13.6,16-27.4,32.5-41,48.8 c-13.3,16.1-24.7,30.1-33.9,41.8c-4,5.1-6.9,8.7-8.9,11.3c2.8-0.1,6.2-0.2,10.1-0.4c5.7-0.3,13.8-1,24.2-2 c10.5-1.1,21.1-1.9,31.3-2.5c10-0.5,17.3-1.1,21.6-1.6h0.2l12.4-0.7l11-19.1c1.7-3.4,4.3-8,7.6-13.5c2.6-4.3,5.4-9,8.5-14.2l2.7-4.5 c4-6.6,8.2-13.9,12.8-22.2c4.3-7.8,8.8-15.8,13.3-23.7c15-25.5,27.1-46.2,36.5-62.2s17-29,22.8-38.9s10.2-17.5,13.2-22.8 c2.9-5.1,5.5-10.1,7.6-14.9v-0.1c4.4-9.3,8.1-17.7,11.1-25C726.6,25.9,727.2,24.4,727.6,23.2z"></path></svg>