<?xml version="1.0" encoding="utf-8"?> 
<svg version="1.1" alt="11 settembre 2026" xmlns="http://www.w3.org/2000/svg" xmlns:xlink="http://www.w3.org/1999/xlink" x="0px" y="0px" viewBox="0 0 1045.8 290.3" xml:space="preserve"> 
	<g> 
		<path class="st0" d="M74.4,52.9c0,0,71-54.2,82.5-52.8c11.8,1.3,10.8,10.1,10.8,10.1S15.1,289.8,11.1,290.2 c-4.4,0.7-14.8-4.4-9.8-12.5c5-8.1,143.4-257.2,143.4-257.2S85.5,65,82.5,64C79.8,63,70.7,58.6,74.4,52.9z"/> 
		<path class="st0" d="M211.7,52.9c0,0,71-54.2,82.5-52.8C306,1.4,305,10.1,305,10.1S152.5,289.8,148.4,290.2 c-4.4,0.7-14.8-4.4-9.8-12.5c5-8.1,143.4-257.2,143.4-257.2S222.8,65,219.8,64C217.1,63,208,58.6,211.7,52.9z"/> 
	</g> 
	<g> 
		<path class="st0" d="M609.9,57.7c-1.1,1.1-3.8,0-6-2.4c-2.2-2.2-3-5.2-1.9-6.3c1.1-0.8,1.9-2.7,2.2-4.6c0.5-3.3,0-7.1-2.4-10.9 c-2.2-3.8-6.3-7.6-12.5-11.4C544.4-3.2,456,18.8,412.2,39.2C391.2,49,339.8,78.1,354,108c6.5,14.1,29.4,22,51.7,29.6 c12.8,4.6,25.6,9,36.2,15c77,43.2-19,136.3-94.7,137.6c-27.5,1.4-59.6-11.7-60.1-39.2c-0.3-12.5,9.5-28.8,33.7-48.1 c1.1-1.1,3.8,0.3,6,2.7c2.2,2.2,3,5.2,1.6,6c-23.4,18.8-32.6,34-32.4,45.2c0.3,17.4,30.5,19.3,42.4,18.8 c66.1-1.6,161.3-83,104.4-115.1c-9.5-5.2-21.8-9.5-34.3-13.9c-25.8-9-52.2-18-62.6-40c-16.6-35.6,31-66.6,57.1-78.9 C450,6,540.3-13,588.2,14.2c9.8,5.7,16.6,12.5,20.4,19.3c4.1,6.5,5.2,12.8,4.6,17.4C612.6,53.9,611.6,56.3,609.9,57.7z"/> 
		<path class="st0" d="M528.6,167.8c-12.8,6.5-27.2,8.2-28,8.2c-18.5,39.7,54.9,6,63.4-9.2c0.8-1.6,3.5-3.5,6-1.4 c2.2,2.2,2.2,3.3,1.4,4.9c-7.6,13.3-50,42.7-68.8,32.1c-9.2-5.2-15-16-12.8-26.7c1.4-6.8,5.4-13.9,10.9-20.1 c5.4-6,11.7-11.7,17.7-16c7.9-5.4,15.2-8.7,18.2-8.2c2.4,0.5,4.6,1.9,6.5,4.1c2.7,3,3.8,6.5,3.3,9.8c-0.3,2.4-1.4,4.9-2.7,7.6 C540.6,158.6,535.1,164.6,528.6,167.8z M509.3,163.5c3.8-1.1,7.9-2.7,12.2-4.6c5.7-3,10.6-8.7,13.6-13.9c0.5-1.1,0.8-1.9,1.4-3 c-3,1.4-6.5,3.5-10.6,6.5C520.4,152.6,514.2,157.8,509.3,163.5z"/> 
		<path class="st0" d="M640.9,43.3c0.8-1.1,3.5-0.5,5.7,1.9c2.2,2.2,3.3,5.2,2.4,6.3c0,0.3-19.9,27.7-41.1,59.6h69.4 c1.9,0,4.9,2.2,6.3,4.6c1.6,2.7,1.4,4.9-0.5,4.9h-81.3c-5.7,8.7-11.4,17.7-16.9,26.4v0.3c0,1.1-0.5,1.6-1.1,1.6 c-16.6,26.9-25.6,42.4-22.6,47.9c4.9,9.2,60.1-34.8,60.1-35.1c1.1-0.8,2.7-1.4,4.9,1.1c2.2,2.4,0.5,3.8-0.5,4.6 c-0.3,0.3-62,61.2-75.3,36.7c-4.1-7.6,8.4-33.7,25.8-62.6c-0.3,0,1.6-3,1.6-3c0.5-20.7-69.1-18-69.1-18c-1.9,0-4.9-2.2-6.3-4.9 c-1.6-2.4-1.4-4.6,0.5-4.6h91.9C617.8,75.4,640.6,43.5,640.9,43.3z M580.8,133.6c2.7-4.4,5.4-8.7,8.2-13.1l-34-1.4 C563.1,122.4,576.5,127.9,580.8,133.6z"/> 
		<path class="st0" d="M696.9,43.3c0.8-1.1,3.5-0.5,5.7,1.9c2.2,2.2,3.3,5.2,2.4,6.3c0,0.3-19.9,27.7-41.1,59.6h69.4 c1.9,0,4.9,2.2,6.3,4.6c1.6,2.7,1.4,4.9-0.5,4.9h-81.3c-5.7,8.7-11.4,17.7-16.9,26.4v0.3c0,1.1-0.5,1.6-1.1,1.6 c-16.6,26.9-25.6,42.4-22.6,47.9c4.9,9.2,60.1-34.8,60.1-35.1c1.1-0.8,2.7-1.4,4.9,1.1c2.2,2.4,0.5,3.8-0.5,4.6 c-0.3,0.3-62,61.2-75.3,36.7c-4.1-7.6,8.4-33.7,25.8-62.6c-0.3,0,1.6-3,1.6-3c0.5-20.7-69.1-18-69.1-18c-1.9,0-4.9-2.2-6.3-4.9 c-1.6-2.4-1.4-4.6,0.5-4.6H651C673.8,75.4,696.7,43.5,696.9,43.3z M636.8,133.6c2.7-4.4,5.4-8.7,8.2-13.1l-34-1.4 C619.2,122.4,632.5,127.9,636.8,133.6z"/> 
		<path class="st0" d="M706.2,167.8c-12.8,6.5-27.2,8.2-28,8.2c-18.5,39.7,54.9,6,63.4-9.2c0.8-1.6,3.5-3.5,6-1.4 c2.2,2.2,2.2,3.3,1.4,4.9c-7.6,13.3-50,42.7-68.8,32.1c-9.2-5.2-15-16-12.8-26.7c1.4-6.8,5.4-13.9,10.9-20.1 c5.4-6,11.7-11.7,17.7-16c7.9-5.4,15.2-8.7,18.2-8.2c2.4,0.5,4.6,1.9,6.5,4.1c2.7,3,3.8,6.5,3.3,9.8c-0.3,2.4-1.4,4.9-2.7,7.6 C718.2,158.6,712.7,164.6,706.2,167.8z M686.9,163.5c3.8-1.1,7.9-2.7,12.2-4.6c5.7-3,10.6-8.7,13.6-13.9c0.5-1.1,0.8-1.9,1.4-3 c-3,1.4-6.5,3.5-10.6,6.5C698,152.6,691.8,157.8,686.9,163.5z"/> 
		<path class="st0" d="M751.1,142.8c0.5-1.4,3.3-0.5,5.4,1.6c2.4,2.2,3.8,4.9,3,6.5l-4.9,8.4c8.4-8.2,16.6-15,21.8-16.9 c16.9-5.7,14.1,12.8,8.7,29.4c0.8-0.5,1.9-1.1,2.7-1.4c2.4-1.1,4.6-1.9,6.5-1.9c4.4-0.3,7.9,1.9,10.3,7.1c1.4,3,1.4,7.6-0.8,13.9 c-0.3,0.5,29.1-23.7,29.4-23.7c1.1-1.1,3.5-4.1,5.7-1.6c2.4,2.2,2.2,3.8,1.1,4.9c-0.3,0.3-65.3,68.8-44.9,12.8 c0.3-1.1,0.5-1.9,0.8-3l-1.1,0.5c-7.3,3.8-16.9,11.7-18.8,15v0.3c-0.8,1.6-3.3,1.1-5.7-1.1c-2.4-2.2-3.5-5.2-3-6.5 c0-0.3,16.6-35.6,15.8-35.4c-14.7,5.2-53.9,53-54.1,53.3c-0.8,1.1-3.3,0.3-5.4-1.6c-2.2-2.2-3.5-5.2-2.7-6.5L751.1,142.8z"/> 
		<path class="st0" d="M893.6,65c0.8-1.4,3.3-0.5,5.7,1.6c2.2,2.2,3.5,5.2,2.7,6.5l-60.9,98.5c11.2-10.3,22.6-19.9,31.3-23.7 c4.9-2.2,9-1.9,12.2,0.5l0.3,0.3c4.1,3.3,6,7.6,6,12.5c0.3,3.3-0.5,7.1-1.6,11.2c-4.4,14.1-15.5,31.8-27.5,34.5 c-16.6,4.1-23.1-5.2-25.8-14.1c-13.1,13.1-22.8,24.5-23.1,24.5c-0.8,1.1-3.3,0.3-5.4-1.9c-2.4-2.2-3.5-5.2-2.7-6.5L893.6,65z M879.7,157c-10.1,4.6-23.9,16.6-36.7,28.8c0,3,0.8,14.7,12.2,12c10.6-2.7,21.2-19.3,25-32.6c1.1-3.3,1.6-6.5,1.9-9.2 C881.3,156.1,880.5,156.7,879.7,157z M883.8,155.3c0,0-0.3,0-0.5,0.3c0.5,0,0.8,0.3,0.5,0V155.3z"/> 
		<path class="st0" d="M920.8,136.3c0.8-1.4,3.5-0.5,5.7,1.6c2.4,2.2,3.5,5.2,2.7,6.5l-10.1,16c9.5-4.6,22.6-9,28-2.2 c2.4,2.7,1.6,9,5.2,9.2c5.2,0.3,12.8-0.8,20.1-3c1.6-0.5,3.3-1.9,4.9,0.5c1.9,2.7,0.8,3.5-0.8,3.8c-7.9,2.4-20.9,5.2-26.7,4.6 c-7.1-0.5-9.2-2.4-15.2-9.5c-4.1-4.9-28.3,16.6-28.3,16.6c-0.5,0.3-14.7,24.2-16,26.7c-0.8,1.4-3.5,0.5-5.7-1.6 c-2.4-2.2-3.5-5.2-2.7-6.5L920.8,136.3z"/> 
		<path class="st0" d="M1002.6,167.8c-12.8,6.5-27.2,8.2-28,8.2c-18.5,39.7,54.9,6,63.4-9.2c0.8-1.6,3.5-3.5,6-1.4 c2.2,2.2,2.2,3.3,1.4,4.9c-7.6,13.3-50,42.7-68.8,32.1c-9.2-5.2-15-16-12.8-26.7c1.4-6.8,5.4-13.9,10.9-20.1 c5.4-6,11.7-11.7,17.7-16c7.9-5.4,15.2-8.7,18.2-8.2c2.4,0.5,4.6,1.9,6.5,4.1c2.7,3,3.8,6.5,3.3,9.8c-0.3,2.4-1.4,4.9-2.7,7.6 C1014.6,158.6,1009.2,164.6,1002.6,167.8z M983.3,163.5c3.8-1.1,7.9-2.7,12.2-4.6c5.7-3,10.6-8.7,13.6-13.9c0.5-1.1,0.8-1.9,1.4-3 c-3,1.4-6.5,3.5-10.6,6.5C994.5,152.6,988.2,157.8,983.3,163.5z"/> 
	</g> 
	<g> 
		<path class="st0" d="M494.5,241h-4.9c0.1-5,1.8-9.1,5-12.3c3.2-3.2,7.2-4.8,11.9-4.8c4.7,0,8.4,1.5,11.3,4.5 c2.9,3,4.3,6.6,4.3,10.7c0,2.9-0.7,5.6-2.1,8.1c-1.4,2.5-4,5.9-8,10.2L499.5,271h23.4v4.9h-34.5l19.4-21c3.9-4.2,6.5-7.3,7.7-9.4 c1.2-2,1.8-4.2,1.8-6.4c0-2.9-1.1-5.3-3.2-7.4c-2.1-2.1-4.7-3.1-7.8-3.1c-3.2,0-5.9,1.1-8.1,3.2C496,234,494.8,237.1,494.5,241z" /> 
		<path class="st0" d="M654.6,250.5c0-6.7,0.7-11.9,2.2-15.5c1.4-3.7,3.5-6.4,6.1-8.3c2.6-1.9,5.6-2.8,8.8-2.8 c3.3,0,6.3,0.9,8.9,2.8c2.7,1.9,4.8,4.7,6.3,8.5s2.3,8.9,2.3,15.3c0,6.4-0.8,11.4-2.3,15.2c-1.5,3.8-3.6,6.6-6.3,8.5 c-2.7,1.9-5.7,2.9-9,2.9c-3.2,0-6.2-0.9-8.8-2.8c-2.6-1.9-4.6-4.6-6.1-8.3C655.3,262.3,654.6,257.2,654.6,250.5z M659.4,250.6 c0,5.7,0.5,10.1,1.5,13c1,2.9,2.5,5.2,4.5,6.7c2,1.5,4.1,2.3,6.3,2.3c2.3,0,4.4-0.7,6.3-2.2c2-1.5,3.4-3.7,4.5-6.7 c1.3-3.6,1.9-8,1.9-13.1c0-5.1-0.6-9.3-1.7-12.6c-1.1-3.3-2.7-5.6-4.7-7.1c-2-1.5-4.1-2.3-6.3-2.3c-2.3,0-4.4,0.8-6.3,2.3 c-2,1.5-3.5,3.7-4.5,6.7C659.9,240.5,659.4,244.8,659.4,250.6z"/> 
		<path class="st0" d="M827.1,241h-4.9c0.1-5,1.8-9.1,5-12.3c3.2-3.2,7.2-4.8,11.9-4.8c4.7,0,8.4,1.5,11.3,4.5 c2.9,3,4.3,6.6,4.3,10.7c0,2.9-0.7,5.6-2.1,8.1c-1.4,2.5-4,5.9-8,10.2L832.1,271h23.4v4.9H821l19.4-21c3.9-4.2,6.5-7.3,7.7-9.4 c1.2-2,1.8-4.2,1.8-6.4c0-2.9-1.1-5.3-3.2-7.4c-2.1-2.1-4.7-3.1-7.8-3.1c-3.2,0-5.9,1.1-8.1,3.2C828.6,234,827.4,237.1,827.1,241z "/> 
		<path class="st0" d="M1010.1,223.8l4.2,2.7l-13.7,20.8c1.8-0.6,3.6-0.9,5.2-0.9c4,0,7.5,1.5,10.3,4.4c2.8,2.9,4.2,6.5,4.2,10.7 c0,2.9-0.7,5.6-2,7.9c-1.4,2.4-3.3,4.2-5.8,5.6c-2.5,1.4-5.2,2.1-8.1,2.1c-2.8,0-5.4-0.7-7.8-2c-2.4-1.3-4.3-3.2-5.6-5.7 c-1.4-2.4-2-5-2-7.8c0-2.1,0.4-4.3,1.3-6.5c0.8-2.3,2.3-5,4.5-8.3L1010.1,223.8z M1004.5,250.9c-3,0-5.5,1-7.6,3.1 c-2.1,2.1-3.1,4.6-3.1,7.6c0,2.9,1,5.5,3.1,7.5c2.1,2.1,4.6,3.1,7.6,3.1c2.9,0,5.5-1,7.6-3.1c2.1-2.1,3.1-4.6,3.1-7.5 c0-3-1-5.5-3.1-7.6C1010,251.9,1007.5,250.9,1004.5,250.9z"/> 
	</g> 
</svg>