<?xml version="1.0" encoding="utf-8"?>
<svg alt="Capo Santa Fortunata Relais" version="1.1" xmlns="http://www.w3.org/2000/svg" xmlns:xlink="http://www.w3.org/1999/xlink" x="0px" y="0px" viewBox="0 0 481.2 232.6" xml:space="preserve">
	<g>
		<path d="M140.7,44.1c0.3,0.7,0.1,1.1-0.5,1c-0.6-0.1-1.2-0.8-1.5-1.4c-1.4-1.3-4.8,0.3-6,1.3c-2.6,2.1-4,4.6-4.8,7.8c2.4-0.7,8.7-8,8.7-8c0.3-0.3,0.9-0.1,1.5,0.6c0.5,0.6,0.8,1.2,0.6,1.5c-0.1,0.3-1,2.2-0.6,4.1c0.3,1.7,9.3-5.9,9.4-6c0.3-0.3,0.8-0.6,1.4-0.1c0.6,0.6,0.5,1.2,0.2,1.5c-4.6,4.1-7.3,6.5-9.2,7.5c-3.2,1.7-5.6,0.7-5.5-2.7c-2.5,2.4-5.1,4.5-6.6,3.8c-0.6-0.2-1-0.6-1.4-1c-0.7-0.9-1-1.9-0.8-2.9c0.1-0.8,0.3-1.7,0.8-2.6c0.9-1.9,2.5-4.1,4.3-5.5C133.9,40.2,139.5,40.1,140.7,44.1z"/>
		<path d="M138.7,68.2c0.4-0.7,3.5-6.2,4.2-7.5c0.5-0.9,1.1-1.9,1.7-3c3.9-7.4,9.6-18,13.3-18.5c4.6-0.6,5.5,4.6,3.7,8.3c-1.4,3.7-4.8,7.5-6.6,7.5c-2.1,0-3.6-1.3-4.5-2.6c-2.6,4.3-7.7,13.5-9.8,17.3l-0.6,1c-0.3,1.2-0.9,2.5-1.6,2.9c-1.6,0.9-2.5-3.4-1.9-6.9c0.7-3.6,15.3-31.5,16-32.5c0.3-0.6,3.1,1,2.8,1.4L138.7,68.2z M159.5,41.7c-1.9,0.2-4.9,4.2-8,9.2c0.3,0.6,1,1.7,2.2,1.7c1.4,0,3.8-3.7,5.1-7.2c0.4-1,0.8-1.9,0.9-2.8c0.1-0.8,0-1.3-0.1-1.5C159.4,40.7,159.7,41.6,159.5,41.7z"/>
		<path d="M168.4,41.9c0.3-0.2,1,0.1,1.5,0.7c0.6,0.6,0.7,1.3,0.4,1.6c-0.2,0.1-0.4,0.3-0.6,0.4c-1.5,1.3-2.6,3.5-3.4,5.6c-0.6,1.8-0.8,3.5-0.5,4.2c0.3,0.1,0.8,0.1,1.3,0c0.6-0.2,1.4-0.6,2.1-1.3c1-0.8,1.9-2.1,2.7-3.7c0.5-0.9,0.8-1.9,1.1-2.8c-1.2-1-2.2-2.3-2.7-3.5c-0.6-1.2-0.8-2.5-0.7-3.4c0.1-1,0.6-1.7,1.4-1.8c0.6-0.1,1.2,0.1,1.7,0.3c0.9,0.5,1.7,1.3,2.2,2.4c0.4,0.8,0.6,1.6,0.8,2.5c0.1,0.9,0.1,1.9,0,3c1.5,0.3,3.8,0.6,6.2-0.8c0.3-0.2,0.7-0.5,1.2,0.1c0.5,0.6,0.4,1.1,0.1,1.3c-3.3,1.8-5.7,2.1-7.8,1.3c-0.3,1.2-0.7,2.4-1.3,3.5c-0.8,1.6-1.8,3-2.8,3.9c-0.8,0.7-1.6,1.2-2.4,1.5c-0.9,0.3-1.8,0.2-2.7-0.3c-0.5-0.3-1-0.6-1.4-1.1c-0.1-0.1-0.3-0.3-0.4-0.4c-1.1-1.6-1-4.2-0.3-6.6c0.8-2.3,2.1-4.6,3.6-6C168,42.2,168.2,42,168.4,41.9z M173.5,44.8c0.1-1.1,0.1-2.2,0-3.1c-0.1-0.6-0.2-1.2-0.3-1.5c-0.1,0,0.1,0,0.1,0c-0.1-0.1-0.3-0.1-0.5,0c-0.4,0-0.6,0.4-0.7,1c-0.1,0.6,0.1,1.4,0.4,2.2C172.6,43.9,173,44.4,173.5,44.8z"/>
		<path d="M135.3,13.8c-1.8,2.7-4.6,5.6-7.9,8.2c-6.9,5.4-16.2,9.9-24.4,10.1c-0.5,0.1-1.2-0.5-1.6-1.2c-0.4-0.6-0.3-1.2,0.1-1.2c8-0.3,17.1-4.7,23.9-10c3.3-2.6,6-5.3,7.8-8c1.7-2.6,2.5-4.9,2-6.8c-0.2-0.5-0.5-1-0.9-1.3c-0.3-0.3-0.7-0.5-1.1-0.6c-4.2-1.7-11.9,0-20.3,4.3C104.3,11.7,93.2,18,82,33c-3.2,4.3-6,8.8-8,13.7c-1.1,2.7-1.9,5.3-2.3,7.7c-0.9,0.1-1.7,0.3-2.6,0.4c0.3-3.1,1.2-6.5,2.6-10c2-5,5-9.6,8.2-13.9c11.2-15,22.4-21.4,31-25.8c8.7-4.4,16.9-6.2,21.6-4.2c0.7,0.3,1.4,0.7,2.1,1.2c1.4,1.1,2.3,2.4,2.7,3.9C138,8.2,137.2,11,135.3,13.8z M131.4,44.2c-0.6-0.6-1.2-0.8-1.5-0.6c-6.4,5.9-12.3,10.7-17.7,14.5c-1.7,1.2-3.3,2.3-4.9,3.2c-1,0.7-2,1.3-3,1.9c-2.6,1.5-5,2.8-7.3,3.8c-3.8,1.7-7.2,2.7-10.2,3.2c-4.3,0.7-7.8,0.3-10.3-1c-0.5-0.2-0.9-0.5-1.3-0.8c-0.6,0.1-1.2,0.2-1.8,0.4c1,1,2.2,1.9,3.5,2.5c3,1.5,6.9,2.1,11.5,1.3c4-0.7,8.5-2.2,13.7-4.9c1.9-1,3.9-2.1,6-3.4c0.8-0.5,1.6-1,2.5-1.6c1.5-1,3-2,4.5-3.1c5.2-3.7,10.9-8.4,16.9-14C132.1,45.5,131.9,44.8,131.4,44.2z"/>
	</g>
	<g>
		<path d="M119.9,76.5c-0.2,1.1-0.6,2-1.2,2.5c-0.4,0.4-1.4,0-2.2-0.9c-0.8-0.8-1.1-1.9-0.7-2.3c0.4-0.3,0.7-1,0.8-1.7c0.2-1.2,0-2.6-0.9-4c-0.6-1-1.5-2-2.8-2.9c0.6-0.4,1.2-0.8,1.8-1.2h0c1.5,1.3,2.6,2.7,3.4,4.1C119.7,72.5,120.1,74.8,119.9,76.5zM76.3,58.8c-1.7,0.2-3.3,0.5-5,0.7c-0.7,0.1-1.4,0.2-2.1,0.4c-1.7,0.3-3.3,0.6-4.9,1c-8.2,1.8-15.8,4.4-21.5,7.1c-9.6,4.5-27.1,15.9-21,29c3.8,8.1,13.5,11.4,23,14.7c4.6,1.6,9.1,3.2,12.6,5.1c20.9,11.8-14.1,41.7-38.4,42.3c-4.4,0.2-15.5-0.5-15.6-6.9c-0.1-4.1,3.3-9.7,11.9-16.6c0.5-0.3,0.2-1.4-0.6-2.2c-0.8-0.9-1.8-1.4-2.2-1C3.5,139.5-0.1,145.5,0,150.1c0.2,10.1,12,14.9,22.1,14.4c27.8-0.5,63.1-34.7,34.8-50.6c-3.9-2.2-8.6-3.8-13.3-5.5c-8.2-2.8-16.6-5.7-19-10.9c-5.2-11,13.7-21.7,21.4-25.3c5.1-2.4,11.9-4.8,19.3-6.8c1.6-0.4,3.2-0.8,4.9-1.2c0.6-0.1,1.2-0.3,1.8-0.4c1.7-0.3,3.3-0.6,5-0.9c6.5-1,13-1.5,19-1.1c1.5-0.7,3.1-1.5,4.9-2.5C93.4,57.8,84.8,57.8,76.3,58.8z"/>
		<path d="M94.5,116.8c0.4,1,0.1,1.6-0.7,1.4c-0.8-0.2-1.8-1.1-2.2-2c-2-1.9-6.9,0.4-8.7,1.9c-3.7,3-5.8,6.6-6.9,11.2c3.5-1,12.6-11.6,12.6-11.6c0.4-0.4,1.3-0.1,2.2,0.8c0.7,0.8,1.1,1.7,0.8,2.2c-0.2,0.5-1.4,3.1-0.8,5.9c0.4,2.4,13.4-8.5,13.6-8.6c0.4-0.4,1.2-0.9,2-0.1c0.8,0.9,0.7,1.7,0.3,2.1c-6.6,5.9-10.5,9.4-13.2,10.8c-4.6,2.4-8.1,1-8-3.9c-3.6,3.4-7.3,6.5-9.5,5.5c-0.8-0.3-1.4-0.9-2-1.5c-1-1.3-1.4-2.7-1.2-4.2c0.1-1.2,0.5-2.5,1.1-3.8c1.3-2.8,3.6-5.9,6.2-8C84.6,111.2,92.8,111,94.5,116.8z"/>
		<path d="M107,112.9c0.3-0.5,1.3-0.3,2.1,0.5c0.9,0.8,1.3,1.9,1,2.4l-2.5,4.5c5.4-4.5,11.3-8.9,13.5-8.3h0.2c3,0.9,3.5,2.8,2.8,5.3c-0.3,1.1-1,2.4-1.7,3.9c-1.3,2.6-2.8,5.5-2.8,5.5c3.2,2.1,14-7.4,14.1-7.4c0.3-0.4,1.4-1.7,2.2-0.8c0.9,0.8,0.3,1-0.1,1.5c0,0-10.9,12.9-16.1,9.5c-4.5-2.9-2.3-7.3-0.4-11.2c0.4-0.8,0.8-1.6,1.1-2.4c-5.7,3-19,15.7-19.4,16.1c-0.3,0.4-1.2,0.1-2-0.6c-0.8-0.9-1.3-1.9-1-2.4L107,112.9z"/>
		<path d="M162,73.7c0.3-0.4,1.3-0.2,2.1,0.7c0.8,0.8,1.2,1.9,0.9,2.3c0,0.1-7.3,10.2-15.1,21.9h25.5c0.7,0,1.8,0.8,2.3,1.7c0.6,1,0.5,1.8-0.2,1.8h-29.9c-2.1,3.2-4.2,6.5-6.2,9.7v0.1c0,0.4-0.2,0.6-0.4,0.6c-6.1,9.9-9.4,15.6-8.3,17.6c1.8,3.4,22.1-12.8,22.1-12.9c0.4-0.3,1-0.5,1.8,0.4c0.8,0.9,0.2,1.4-0.2,1.7c-0.1,0.1-22.8,22.5-27.7,13.5c-1.5-2.8,3.1-12.4,9.5-23c-0.1,0,0.6-1.1,0.6-1.1c0.2-7.6-25.4-6.6-25.4-6.6c-0.7,0-1.8-0.8-2.3-1.8c-0.6-0.9-0.5-1.7,0.2-1.7h33.8C153.5,85.5,161.9,73.8,162,73.7z M139.9,106.9c1-1.6,2-3.2,3-4.8l-12.5-0.5C133.4,102.8,138.3,104.8,139.9,106.9z"/>
		<path d="M171.1,116.8c0.4,1,0.1,1.6-0.7,1.4c-0.8-0.2-1.8-1.1-2.2-2c-2-1.9-6.9,0.4-8.7,1.9c-3.7,3-5.8,6.6-6.9,11.2c3.5-1,12.6-11.6,12.6-11.6c0.4-0.4,1.3-0.1,2.2,0.8c0.7,0.8,1.1,1.7,0.8,2.2c-0.2,0.5-1.4,3.1-0.8,5.9c0.4,2.4,13.4-8.5,13.6-8.6c0.4-0.4,1.2-0.9,2-0.1c0.8,0.9,0.7,1.7,0.3,2.1c-6.6,5.9-10.5,9.4-13.2,10.8c-4.6,2.4-8.1,1-8-3.9c-3.6,3.4-7.3,6.5-9.5,5.5c-0.8-0.3-1.4-0.9-2-1.5c-1-1.3-1.4-2.7-1.2-4.2c0.1-1.2,0.5-2.5,1.1-3.8c1.3-2.8,3.6-5.9,6.2-8C161.2,111.2,169.4,111,171.1,116.8z"/>
	</g>
	<g>
		<path d="M273.4,63.9c0.3-0.5,1.3-0.2,2.1,0.7c0.9,0.8,1.3,1.9,0.9,2.3L275,69c13.5-0.8,26.6-1.2,37.5-0.9c8.6,0.1,15.9,0.7,21.1,1.5c6.6,1.1,10.6,3.1,10.8,6.2v0.1c0,0.2,0,0.4,0,0.5c-0.1,0.7-1,0.6-1.9-0.1c-0.9-0.7-1.5-1.8-1.4-2.4v-0.1c0-0.1-2.1-0.2-5.8-0.8c-5.1-0.8-12.3-1.3-20.8-1.5c-12.2-0.2-27.1,0.2-42.2,1.3c-4.4,6.5-12.1,17.5-20.1,29.2c-0.8,1.4-1.7,2.9-2.7,4.5c11.9-0.1,23.1,0.5,23.4,4.2c0.1,0.8-0.6,1-1.5,0.4c-0.9-0.5-2.3-1.1-2.4-1.9c0-0.3-10.6,0.1-21.8,0.7c-0.2,0.1-0.4,0.2-0.6,0.2l-6.7,9.7c-0.3,1.5-0.6,3-1.1,4.6c-1.1,3.6-2.7,7.4-4.5,11c-4.9,9.9-11.8,18.2-13.8,17.2c-3.8-1.9,13.5-28.8,15.4-32c0.8-3,1.1-5.7,0.8-7.8c-0.1-1-0.5-1.7-1.2-2.3c-2.4,0.1-13.8,0.7-14.3-2.4c-0.1-0.7,1.7-1.3,6.1-1.9c3.3-0.5,5.9-0.2,7.9,0.8c2.8-0.2,6-0.3,9.1-0.4c10.6-14.8,10.2-22.2,5.5-25.6c-3.9-2.8-10.6-3.6-16.7-3.6c-1,0.2-2,0.4-2.9,0.6c-5.3,0.9-8.9,1-11.3,0.7c0.1,0,0.2-0.1,0.4-0.3c-0.5,0.1-0.8,0.2-0.8,0.2l0.1,0.1c-2.1-0.3-3.2-1-3.3-1.8c-0.1-0.6,5.9-2.5,13.3-2.9c0.7,0,1.5,0,2.2,0c12-2.1,25.5-3.6,38.8-4.6C271.9,66,273.4,64,273.4,63.9z M239.9,114.2l2.6-4c-1.3,0-2.6,0.1-3.8,0.2C239.3,111.5,239.7,112.8,239.9,114.2z M255.9,89.7c4.2-6.3,8-12,11.1-16.4c-7.7,0.6-15.3,1.4-22.6,2.4c2.1,0.7,4,1.6,5.6,2.7C253.6,81,255.9,84.6,255.9,89.7z"/>
		<path d="M282.5,113.6c0.4-0.3,1.4,0.1,2.2,1c0.8,0.9,1,1.9,0.6,2.3c-0.3,0.2-0.6,0.4-0.8,0.6c-2.1,1.9-3.8,5-4.9,8.1c-0.8,2.6-1.2,5-0.7,6c0.5,0.2,1.1,0.2,1.9,0c0.9-0.3,2-0.9,3-1.9c1.4-1.2,2.7-3,3.9-5.3c0.7-1.3,1.2-2.7,1.6-4.1c-1.8-1.5-3.1-3.3-3.9-5.1c-0.8-1.8-1.1-3.6-1-4.9c0.2-1.4,0.8-2.4,2-2.6c0.9-0.1,1.7,0.1,2.5,0.5c1.3,0.7,2.4,1.9,3.1,3.4c0.6,1.1,0.9,2.3,1.1,3.6c0.2,1.3,0.2,2.8,0,4.3c2.2,0.4,5.5,0.8,9-1.2c0.5-0.3,1-0.7,1.8,0.2c0.7,0.9,0.6,1.6,0.1,1.9c-4.7,2.6-8.2,3-11.3,1.9c-0.4,1.7-1,3.5-1.9,5c-1.2,2.3-2.6,4.3-4.1,5.6c-1.2,1-2.3,1.8-3.4,2.1c-1.3,0.4-2.6,0.3-3.9-0.4c-0.7-0.4-1.4-0.9-2-1.6c-0.2-0.2-0.4-0.4-0.6-0.6c-1.6-2.3-1.5-6-0.4-9.5c1.1-3.3,3-6.6,5.2-8.6C281.9,114.1,282.2,113.8,282.5,113.6z M289.8,117.9c0.2-1.6,0.2-3.2,0-4.5c-0.1-0.9-0.3-1.7-0.5-2.2c-0.1,0,0.1,0,0.1,0c-0.1-0.1-0.4-0.1-0.7,0c-0.6,0-0.9,0.6-1,1.5c-0.1,0.9,0.1,2,0.6,3.1C288.6,116.6,289.1,117.3,289.8,117.9z"/>
		<path d="M308.2,107.9c0.3-0.5,1.3-0.2,2.1,0.6c0.9,0.8,1.3,1.9,1,2.4l-3.7,5.9c3.5-1.7,8.3-3.3,10.3-0.8c0.9,1,0.6,3.3,1.9,3.4c1.9,0.1,4.7-0.3,7.4-1.1c0.6-0.2,1.2-0.7,1.8,0.2c0.7,1,0.3,1.3-0.3,1.4c-2.9,0.9-7.7,1.9-9.8,1.7c-2.6-0.2-3.4-0.9-5.6-3.5c-1.5-1.8-10.4,6.1-10.4,6.1c-0.2,0.1-5.4,8.9-5.9,9.8c-0.3,0.5-1.3,0.2-2.1-0.6c-0.9-0.8-1.3-1.9-1-2.4L308.2,107.9z"/>
		<path d="M355.5,73.7c0.3-0.4,1.3-0.2,2.1,0.7c0.8,0.8,1.2,1.9,0.9,2.3c0,0.1-7.3,10.2-15.1,21.9h25.5c0.7,0,1.8,0.8,2.3,1.7c0.6,1,0.5,1.8-0.2,1.8h-29.9c-2.1,3.2-4.2,6.5-6.2,9.7v0.1c0,0.4-0.2,0.6-0.4,0.6c-6.1,9.9-9.4,15.6-8.3,17.6c1.8,3.4,22.1-12.8,22.1-12.9c0.4-0.3,1-0.5,1.8,0.4c0.8,0.9,0.2,1.4-0.2,1.7c-0.1,0.1-22.8,22.5-27.7,13.5c-1.5-2.8,3.1-12.4,9.5-23c-0.1,0,0.6-1.1,0.6-1.1c0.2-7.6-25.4-6.6-25.4-6.6c-0.7,0-1.8-0.8-2.3-1.8c-0.6-0.9-0.5-1.7,0.2-1.7h33.8C347,85.5,355.4,73.8,355.5,73.7z M333.4,106.9c1-1.6,2-3.2,3-4.8l-12.5-0.5C326.9,102.8,331.8,104.8,333.4,106.9z"/>
		<path d="M353.6,109.9c0.4-0.4,1.4,0,2.2,0.8c0.8,0.9,1.1,1.9,0.8,2.4c-7.6,8.7-8.2,14.7-7.5,15.3c1.2,1,8.9-3.9,14.3-13l0.3-0.4c0.4-0.4,1.4-0.1,2.2,0.8c0.8,0.8,1.2,1.9,0.8,2.3c0,0-0.2,0.3-0.7,0.7c-1.3,1.6-8.8,12.2-1.3,8.6c3.9-1.9,8.5-5.6,11.1-9c0.4-0.5,0.8-1.5,1.7-0.6c0.8,0.8,0.3,1.4-0.1,1.8c-2.7,3.5-6.5,8.2-10.5,10.1c-3.5,1.7-7.9,0.9-8.5-3.4c-9.9,8.5-18,6.9-12.5-5.3C347.7,117,351,112.7,353.6,109.9z"/>
		<path d="M378.5,112.9c0.3-0.5,1.3-0.3,2.1,0.5c0.9,0.8,1.3,1.9,1,2.4l-2.5,4.5c5.4-4.5,11.3-8.9,13.5-8.3h0.2c3,0.9,3.5,2.8,2.8,5.3c-0.3,1.1-1,2.4-1.7,3.9c-1.3,2.6-2.8,5.5-2.8,5.5c3.2,2.1,14-7.4,14.1-7.4c0.3-0.4,1.4-1.7,2.2-0.8c0.9,0.8,0.3,1-0.1,1.5c0,0-10.9,12.9-16.1,9.5c-4.5-2.9-2.3-7.3-0.4-11.2c0.4-0.8,0.8-1.6,1.1-2.4c-5.7,3-19,15.7-19.4,16.1c-0.3,0.4-1.2,0.1-2-0.6c-0.8-0.9-1.3-1.9-1-2.4L378.5,112.9z"/>
		<path d="M422,116.8c0.4,1,0.1,1.6-0.7,1.4c-0.8-0.2-1.8-1.1-2.2-2c-2-1.9-6.9,0.4-8.7,1.9c-3.7,3-5.8,6.6-6.9,11.2c3.5-1,12.6-11.6,12.6-11.6c0.4-0.4,1.3-0.1,2.2,0.8c0.7,0.8,1.1,1.7,0.8,2.2c-0.2,0.5-1.4,3.1-0.8,5.9c0.4,2.4,13.4-8.5,13.6-8.6c0.4-0.4,1.2-0.9,2-0.1c0.8,0.9,0.7,1.7,0.3,2.1c-6.6,5.9-10.5,9.4-13.2,10.8c-4.6,2.4-8.1,1-8-3.9c-3.6,3.4-7.3,6.5-9.5,5.5c-0.8-0.3-1.4-0.9-2-1.5c-1-1.3-1.4-2.7-1.2-4.2c0.1-1.2,0.5-2.5,1.1-3.8c1.3-2.8,3.6-5.9,6.2-8C412.1,111.2,420.3,111,422,116.8z"/>
		<path d="M459.6,73.7c0.3-0.4,1.3-0.2,2.1,0.7c0.8,0.8,1.2,1.9,0.9,2.3c0,0.1-7.3,10.2-15.1,21.9H473c0.7,0,1.8,0.8,2.3,1.7c0.6,1,0.5,1.8-0.2,1.8h-29.9c-2.1,3.2-4.2,6.5-6.2,9.7v0.1c0,0.4-0.2,0.6-0.4,0.6c-6.1,9.9-9.4,15.6-8.3,17.6c1.8,3.4,22.1-12.8,22.1-12.9c0.4-0.3,1-0.5,1.8,0.4c0.8,0.9,0.2,1.4-0.2,1.7c-0.1,0.1-22.8,22.5-27.7,13.5c-1.5-2.8,3.1-12.4,9.5-23c-0.1,0,0.6-1.1,0.6-1.1c0.2-7.6-25.4-6.6-25.4-6.6c-0.7,0-1.8-0.8-2.3-1.8c-0.6-0.9-0.5-1.7,0.2-1.7h33.8C451.1,85.5,459.5,73.8,459.6,73.7z M437.5,106.9c1-1.6,2-3.2,3-4.8l-12.5-0.5C431,102.8,435.9,104.8,437.5,106.9z"/>
		<path d="M468.7,116.8c0.4,1,0.1,1.6-0.7,1.4c-0.8-0.2-1.8-1.1-2.2-2c-2-1.9-6.9,0.4-8.7,1.9c-3.7,3-5.8,6.6-6.9,11.2c3.5-1,12.6-11.6,12.6-11.6c0.4-0.4,1.3-0.1,2.2,0.8c0.7,0.8,1.1,1.7,0.8,2.2c-0.2,0.5-1.4,3.1-0.8,5.9c0.4,2.4,13.4-8.5,13.6-8.6c0.4-0.4,1.2-0.9,2-0.1c0.8,0.9,0.7,1.7,0.3,2.1c-6.6,5.9-10.5,9.4-13.2,10.8c-4.6,2.4-8.1,1-8-3.9c-3.6,3.4-7.3,6.5-9.5,5.5c-0.8-0.3-1.4-0.9-2-1.5c-1-1.3-1.4-2.7-1.2-4.2c0.1-1.2,0.5-2.5,1.1-3.8c1.3-2.8,3.6-5.9,6.2-8C458.8,111.2,467,111,468.7,116.8z"/>
	</g>
	<g>
		<path d="M161.8,192.9c0.9,0.4,1.8,1.5,2,2.3c0.2,0.9-0.3,1.3-1.2,0.9c-24.9-11.7-17-35.7,1.3-47.2c11.9-7.4,35.6-13.8,57.9-14.5c-0.8,1.4-1.5,2.7-2.1,3.9c-19.8,1.9-40.3,8.3-50.8,14.8C154.8,162,140.3,182.8,161.8,192.9zM286.4,227.9c-39.7-12.4-53.9-24.3-58.2-29c16.4,0.2,35.6-5.9,43.6-21c5.2-10.1,2.8-22.1-4.7-30.8c-5.8-6.7-15.7-10.4-27.2-11.9c-0.4,0.8-0.8,1.7-1.2,2.5c0,0.1-0.1,0.1-0.1,0.2c11.4,0.9,21.2,4,26.8,10.4c6.4,7.4,6.3,17.1,1.9,25.5c-7.8,14.9-25.7,22-41.8,21.7c-0.2,0-0.3,0-0.4,0c-0.3-0.1-0.6-0.2-0.9-0.2c-0.7,0-0.7,0.9-0.1,1.8c0,0.1,10.6,17.6,63.6,34.2c0.8,0.2,1.2-0.3,0.8-1.2C288.2,229.1,287.2,228.2,286.4,227.9z M234.1,175.1c-12.1,19.5-36.2,56.4-45.7,57.5c-3,0.3-4.6-1.5-5-5c-0.6-5.1,3.9-17.2,10.5-29.2c6.7-12,15.7-23.9,24.1-28.5c5-2.7,9.8-3,14.2,0.3l1.1-1.9c-0.4-0.7-0.5-1.3-0.2-1.6l5-6.3c0.4-0.5,1.3-0.1,2.2,0.7c0.8,0.8,1.2,1.8,0.9,2.3c-0.1,0.1-2.3,3.9-5.9,9.7c1,1.3,2,2.8,3,4.6c0.5,0.9,0.3,1.7-0.4,1.6c-0.8-0.1-1.8-0.9-2.3-1.8C235.1,176.6,234.6,175.8,234.1,175.1z M230.9,172.3c-3.1-1.6-6.5-1-10.2,0.9c-8.3,4.5-17.1,16.3-23.6,28.1c-6.4,11.4-10.7,22.7-10.5,27.7C196,226.7,219.1,191.4,230.9,172.3z"/>
		<path d="M291,196.4c-4.7,2.4-10,3-10.3,3c-6.8,14.6,20.2,2.2,23.3-3.4c0.3-0.6,1.3-1.3,2.2-0.5c0.8,0.8,0.8,1.2,0.5,1.8c-2.8,4.9-18.4,15.7-25.3,11.8c-3.4-1.9-5.5-5.9-4.7-9.8c0.5-2.5,2-5.1,4-7.4c2-2.2,4.3-4.3,6.5-5.9c2.9-2,5.6-3.2,6.7-3c0.9,0.2,1.7,0.7,2.4,1.5c1,1.1,1.4,2.4,1.2,3.6c-0.1,0.9-0.5,1.8-1,2.8C295.4,193,293.4,195.2,291,196.4zM283.9,194.8c1.4-0.4,2.9-1,4.5-1.7c2.1-1.1,3.9-3.2,5-5.1c0.2-0.4,0.3-0.7,0.5-1.1c-1.1,0.5-2.4,1.3-3.9,2.4C288,190.8,285.7,192.7,283.9,194.8z"/>
		<path d="M332.4,195.8c0.2-0.3,0.6-0.9,1.4-0.3c0.8,0.5,1.3,1.3,1.1,1.6c-2.5,4.3-22.7,20.6-28.5,23.5c-3.6,1.9-9.6,3.7-12.1-0.3c-5.9-8.3,32.6-63.2,33.5-63.4c3.2-4.6,7.4-7.7,10.5-8.6c1.1-0.3,2.2-0.4,3.2,0c1.7,0.5,2.9,1.6,3.4,3.2c0.4,1.5,0,3.9-1.8,7.3c-6.4,12.8-33.1,33.1-33.2,33.2c-0.1,0-0.2,0.1-0.4,0c-7.3,12.7-12.5,24.2-11.1,27.2c0.9,1.3,5.2-0.3,6.2-0.8C310.3,215.4,329.9,200,332.4,195.8z M330.6,159c0,0-8.1,11.8-16.2,25c8.3-6.9,21.6-18.7,25.9-27.2c1.5-3,2-5.1,1.7-6.4c-0.3,0-0.8,0.1-1.3,0.2C337.8,151.5,333.8,154.5,330.6,159z"/>
		<path d="M348.6,193.7c0.4,1,0.1,1.6-0.7,1.4c-0.8-0.2-1.8-1.1-2.2-2c-2-1.9-6.9,0.4-8.7,1.9c-3.7,3-5.8,6.6-6.9,11.2c3.5-1,12.6-11.6,12.6-11.6c0.4-0.4,1.3-0.1,2.2,0.8c0.7,0.8,1.1,1.7,0.8,2.2c-0.2,0.5-1.4,3.1-0.8,5.9c0.4,2.4,13.4-8.5,13.6-8.6c0.4-0.4,1.2-0.9,2-0.1c0.8,0.9,0.7,1.7,0.3,2.1c-6.6,5.9-10.5,9.4-13.2,10.8c-4.6,2.4-8.1,1-8-3.9c-3.6,3.4-7.3,6.5-9.5,5.5c-0.8-0.3-1.4-0.9-2-1.5c-1-1.3-1.4-2.7-1.2-4.2c0.1-1.2,0.5-2.5,1.1-3.8c1.3-2.8,3.6-5.9,6.2-8C338.7,188.1,346.9,187.9,348.6,193.7z"/>
		<path d="M364.6,187.6c0.5-0.4,1.5,0,2.3,0.9c0.8,0.9,1.1,1.9,0.6,2.3c-2.2,1.9-5.8,6.2-8,10.4c-1.4,2.8-1.3,4.4-0.3,4.9c4.1,0.6,15.2-10.2,15.2-10.3c0.4-0.4,1.1-1.2,1.9-0.3c0.9,0.9,0.5,1.2,0.1,1.6c-0.1,0-16.7,18-21,10.5c-1.4-2.5-0.7-5.9,1-9.3C358.6,194,362.3,189.5,364.6,187.6z M370.8,184.7c-0.4,0.5-1.4,0.1-2.2-0.7c-0.8-0.9-1.2-1.9-0.8-2.4l5.6-6.4c0.4-0.5,1.3-0.1,2.2,0.7c0.8,0.9,1.1,1.9,0.8,2.4L370.8,184.7z"/>
		<path d="M374.9,198.8c-0.4,0.4-1.6,1-2.4,0.2c-0.8-0.9,1.3-2.7,1.7-3.1l7.5-9.1c1.3-1.4,2.3-2.2,2.3-2.2c0.4-0.4,1.4,0,2.1,0.9c0.8,0.8,1.2,1.9,0.8,2.3l-2.4,2.3c-2.1,2.4-4.9,6.7-3.8,11.3c0.6,2.9,0.3,5.2-0.5,6.9c-0.5,0.9-1.2,1.6-1.9,2.2c-0.7,0.5-1.5,0.9-2.3,1.1c-1.4,0.3-2.8,0.1-3.9-0.5c-5.7-2.9-2.6-8.5-2.6-8.6c0.3-0.5,1.2-0.3,2.1,0.5c0.9,0.8,1.3,1.9,1.1,2.4c0,0.1-1.4,2.6-1.2,2.7c0.4,0.2,1.2,0.2,2,0c0.7-0.1,1.4-0.4,2-0.9c0.6-0.4,1.2-1.1,1.5-1.8c0.7-1.4,1-3.2,0.5-5.5c0-1.3-0.9-1.4,1.5-5.8L374.9,198.8z"/>
	</g>
</svg>