<?xml version="1.0" encoding="utf-8"?>
<!-- Generator: Adobe Illustrator 26.0.2, SVG Export Plug-In . SVG Version: 6.00 Build 0)  -->
<svg version="1.1" id="Layer_1" xmlns="http://www.w3.org/2000/svg" xmlns:xlink="http://www.w3.org/1999/xlink" x="0px" y="0px"
	 viewBox="0 0 708.9 564.3" style="enable-background:new 0 0 708.9 564.3;" xml:space="preserve">
<style type="text/css">
	.st0{fill:#FFF3E3;}
	.st1{fill:#AE9672;}
</style>
<g>
	<path class="st0" d="M704.1,444.1c-4.8-2.3-14.4-4.1-29-5.5c-5-0.5-14.4-0.9-28.3-1.4c-13.9-0.5-29.2-0.7-46-0.7h-50.1
		c-16.6,0-126.5,2.1-136.5,2.5c-9.6,0.4-17.7,0.8-24.6,1c-6.8,0.2-10.5,0.3-10.9,0.3c6.4-13.2,11.9-24.6,16.7-34.1
		c4.8-9.6,10-19.7,15.7-30.4c0.7-1.4,13.3-28.3,15.5-32.6c5.2-10.7,10.6-21.4,16-32.1c5.5-10.7,26.5-49.9,30.6-57.8
		c4.1-8,6.4-11.9,6.8-11.9c0.4-0.4,2.9-0.8,7.5-1c4.5-0.2,167.8-10.2,170.8-10.4c2.9-0.2,4.9-0.8,5.8-1.7c0.9-0.9,0.9-1.5,0-1.7
		c-0.9-0.2-3.2-0.6-6.8-1c-2.3-0.4-5.6-0.7-9.9-0.7c0,0-159.3,8.3-160.9,8c-1.6-0.2-2.2-0.8-1.7-1.7c0.9-1.8,6.4-11.8,16.4-30
		c10-18.2,22.5-40.7,37.5-67.5c9.6-16.8,17.3-30.5,23.2-40.9c5.9-10.5,10.7-19,14.3-25.6c3.6-6.6,6.5-11.9,8.5-16
		c2-4.1,4.2-8.2,6.5-12.3c9.6-20.9,12.5-33.2,8.9-36.8c-1.4-1.8-3.2-2.5-5.5-2c-5,0-12.8,4.2-23.5,12.6c-10.7,8.4-25.4,21.9-44,40.6
		c-20.5,20.5-42.3,43.7-65.5,69.6c-23.2,25.9-48.4,55-75.7,87.3c-7.3,9.1-13.6,16.6-19.1,22.5c-5.5,5.9-8.6,8.9-9.6,8.9
		c-0.5,0-2.7,0.2-6.8,0.7c-4.1,0.5-8.9,0.9-14.3,1.4c-5.5,0.9-10.1,1.5-14,1.7c-3.9,0.2-6,0.1-6.5-0.3c0-0.9-0.2-1.8-0.7-2.7
		c-0.9-1.4-1.6-3.4-2-6.1c-5.9-21.4-17.4-38.9-34.4-52.5c-17.1-13.6-38.3-22.7-63.8-27.3c-23.6-4.1-47.6-3.6-72,1.4
		c-24.3,5-46,13.9-65.1,26.6c-15,10-24.7,20-29,30c-4.3,10-2.6,19.1,5.1,27.3c8.2,9.6,25.2,16.6,51.2,21.1
		c4.1,0.9,10.6,1.5,19.4,1.7c8.9,0.2,18.6,0.3,29.3,0.3c10.7,0,21.6-0.1,32.7-0.3c11.1-0.2,21.3-0.8,30.4-1.7
		c21.4-1.8,40.5-3.4,57.3-4.8c16.8-1.4,27.1-2.3,30.7-2.7l6.1-0.7v11.6c0,5.9-0.5,12.4-1.4,19.4c-0.9,7.1-2.3,13.3-4.1,18.8
		c-0.5,2.3-1.6,4.8-3.4,7.5c-1.8,2.7-4.3,6.4-7.5,10.9c-5,6.4-9.7,13.1-14,20.1c-4.3,7-7.4,12.4-9.2,16c-0.9,3.2-1.4,6.4-1.4,9.6
		c0,3.2,0.7,5.2,2,6.1c4.1,2.3,8.3,1,12.6-3.8c4.3-4.8,9.7-14.4,16-29c1.4-3.2,2.7-6,4.1-8.5c1.4-2.5,3.2-5.5,5.5-8.9
		c2.3-3.4,5.6-7.7,9.9-13c4.3-5.2,10.3-12.4,18.1-21.5c8.6-10.5,16-19.5,22.2-27.3c6.1-7.7,9.4-11.8,9.9-12.3
		c0.4,0,5.6-0.4,15.3-1.4c9.8-0.9,20.6-1.9,32.4-3.1c11.8-1.1,27.5-2.4,47.1-3.8c0.4,0.5-0.6,3.1-3.1,7.8
		c-2.5,4.8-21.8,40.7-25.5,47.9c-12.2,22.3-41.3,79.4-46.5,89.6c-5.2,10.2-10.1,19.7-14.7,28.3c-4.6,8.6-7.5,14.3-8.9,17.1
		c-1.8,5-3.4,7.5-4.8,7.5c-0.5,0.4-2.3,0.8-5.5,1c-3.2,0.2-7.1,0.6-11.6,1c-12.3,0.9-22.4,1.7-30.4,2.4c-8,0.7-15,1.2-21.1,1.7
		c-6.1,0.4-11.7,1-16.7,1.7c-5,0.7-10.5,1.5-16.4,2.4c-55.5,7.3-90.3,17.7-104.4,31.4c-9.6,8.2-10.2,18.2-2,30
		c3.6,5.5,8.8,11.1,15.4,17.1c6.6,5.9,13.9,11.3,21.8,16c8,4.8,16.1,8.9,24.6,12.3c8.4,3.4,16.3,5.6,23.5,6.5c5,0.4,10.6,0.4,16.7,0
		c6.1-0.5,11.7-1.1,16.7-2c5-1.4,11-3.9,18.1-7.5c7-3.6,12.8-7.3,17.4-10.9c15.9-13.2,34.3-38.7,55.3-76.4l10.2-17.1l6.1-1.4
		l160.1-1.8c16.4,0,33.9,0.2,52.5,0.7c18.6,0.4,35.8,0.9,51.5,1.4c15.7,0.4,28.8,0.8,39.2,1c10.5,0.2,15.9,0.6,16.4,1
		c1.4,1.4-7.7,5.7-27.3,13c-11.8,4.1-16.6,6.4-14.3,6.8c2.3,0.4,10.7-1.1,25.2-4.8c9.1-2.3,15.3-4.1,18.8-5.5
		c3.4-1.4,5.6-3.2,6.5-5.5C710.1,450,708.8,446.4,704.1,444.1z M300.5,247.1c-2.7,0.5-9.6,1.1-20.5,2c-10.9,0.9-23,2-36.2,3.4
		c-13.2,1.4-25.9,2.6-38.2,3.8c-12.3,1.1-20.9,1.7-25.9,1.7c-4.1,0.5-9.1,0.8-15,1c-5.9,0.2-11.8,0.3-17.7,0.3
		c-5.9,0-11.5-0.1-16.7-0.3c-5.2-0.2-9-0.3-11.3-0.3c-40.5-4.1-63-13.9-67.5-29.3c-1.4-4.5-0.6-9.7,2.4-15.3c3-5.7,7.6-11.4,14-17.1
		c6.4-5.7,14.1-11,23.2-16c9.1-5,19.1-9.3,30-13c10.9-3.6,20.6-6.1,29-7.5c8.4-1.4,19.2-2,32.4-2c12.7,0,22.8,0.6,30.4,1.7
		c7.5,1.1,16.3,3.5,26.3,7.2c18.6,6.4,34,16.1,46,29.3c12,13.2,19.9,28.4,23.5,45.7l0.7,4.1L300.5,247.1z M346.2,258.7
		c-1.8,2.3-3.9,4.7-6.1,7.2c-2.3,2.5-4.6,5.1-6.8,7.8c-5,6.4-8.9,11.1-11.6,14.3c-2.7,3.2-4.7,5.5-5.8,6.8c-1.1,1.4-1.7,1.9-1.7,1.7
		c0-0.2,0.2-0.8,0.7-1.7c0-0.4,0.1-2.8,0.3-7.2c0.2-4.3,0.6-9,1-14c0.4-9.1,0.8-14.5,1-16.4c0.2-1.8,0.8-3,1.7-3.4
		c0.4,0,2.5-0.1,6.1-0.3c3.6-0.2,7.3-0.6,10.9-1c3.6-0.4,8.6-0.7,15-0.7C349.6,254.1,348,256.4,346.2,258.7z M458.8,234.1
		c-3.6,0.5-9.7,0.9-18.1,1.4c-8.4,0.5-16.9,1.1-25.6,2c-8.6,0.9-15.3,1.5-20.1,1.7c-4.8,0.2-8.4,0.3-10.9,0.3h-4.4
		c-0.5,0-0.7-0.2-0.7-0.7c0-0.4,3.9-5.6,11.6-15.3c7.7-9.8,17.1-21.3,28-34.4c10.9-13.2,22.2-26.6,33.8-40.2
		c11.6-13.6,21.2-24.8,29-33.4c12.7-14.5,24.9-28.1,36.5-40.6c11.6-12.5,22.3-23.6,32.1-33.4c9.8-9.8,18.2-17.7,25.2-23.9
		c7-6.1,12.4-9.9,16-11.3c0.9,0,1.7-0.1,2.4-0.3c0.7-0.2,1.2-0.3,1.7-0.3h0.7c0.9,0.9,0.1,4.4-2.4,10.6c-2.5,6.1-5.6,13.1-9.2,20.8
		c-1.8,4.1-4,8.3-6.5,12.6c-2.5,4.3-6.1,10.6-10.9,18.8c-4.8,8.2-11,18.9-18.8,32.1c-7.7,13.2-17.7,30.2-30,51.2
		c-3.6,6.4-7.3,12.9-10.9,19.4c-3.6,6.6-7.2,12.7-10.6,18.4c-3.4,5.7-6.5,10.8-9.2,15.3c-2.7,4.6-4.8,8.2-6.1,10.9L471,233.4
		L458.8,234.1z M355.4,453.5c-0.9,2.3-2.8,5.9-5.8,10.9c-3,5-6.3,10.3-9.9,16c-3.6,5.7-7.2,11.1-10.6,16.4c-3.4,5.2-6,9.2-7.8,11.9
		c-2.3,3.2-5.2,6.9-8.9,11.3c-3.6,4.3-7.1,8.3-10.2,11.9c-12.3,12.3-25,20-38.2,23.2c-5,1.4-11.3,1.9-18.8,1.7
		c-7.5-0.2-14-1-19.4-2.4c-8.2-2.3-16.9-5.6-26.3-9.9c-9.3-4.3-17.2-9-23.5-14c-6.8-5-12.7-10.7-17.7-17.1c-5-6.4-7.5-11.6-7.5-15.7
		c0-12.3,16.5-22.5,49.5-30.7c33-8.2,80.6-13.9,142.9-17.1l14.3-0.7L355.4,453.5z"/>
	<path class="st1" d="M258.4,220c-0.8,1.6-1.5,3.1-2.3,4.6c-1.9,3.5-6.4,11-8.1,13.7c-1.7,2.7-3.3,5.4-4.7,8.4
		c-1.9,3.4-3.5,6.6-4.7,9.6c-1.2,3-1.8,5.1-1.8,6.4c0,1,0.5,2.2,1.5,3.6c0.7,1,1.8,1.5,3.3,1.5c0.7,0,1.4-0.2,2-0.5
		c0.6-0.4,1.7-1.2,3.3-2.5c1.6-1.3,3.7-3.4,6.4-6.2c2.7-2.8,6.4-6.7,11.3-11.8c2.9-3.1,6.1-6.4,9.6-9.6c3.5-3.3,6.8-6.3,9.8-9.1
		c3-2.8,5.6-5,7.6-6.5c2.1-1.6,3.1-2.1,3.1-1.6c0,1-0.4,2.5-1.1,4.7c-1.2,3.4-2.1,7.1-2.7,11.1c-0.6,4-0.7,7-0.2,8.9
		c0.5,4.8,2.1,8,4.7,9.4c1.5,0.7,3.6,1,6.4,0.9c2.8-0.1,5.4-0.5,7.8-1.3c1.9-0.7,3.7-1.5,5.3-2.2c1.6-0.7,3.3-1.8,5.1-3.1
		c1.8-1.3,6-4.4,8.2-6.5c2.2-2.1,6.8-7.4,7.5-8.1c-4.8,11-7.8,19.9-9,26.7c-1.5,7.5-0.4,12.7,3.3,15.6c1,1,2.7,1.5,5.1,1.5
		c4.8,0,10.9-3.1,18.2-9.4c1.2-1,3.2-2.8,6-5.4c2.8-2.7,5.9-5.7,9.4-9.3c3.5-3.5,7.1-7.1,10.9-10.9c0.6-0.6,1.1-1.1,1.6-1.6
		c-0.5,1.4-0.9,2.9-1.3,4.4c-1.1,4.8-1.4,9-0.9,12.3c0.2,1.2,1,2.6,2.2,4.2c1.2,1.6,2.4,2.6,3.6,3.1c1.2,0.5,2.7,0.6,4.5,0.4
		c1.8-0.2,3.5-0.6,4.9-1.1c7-3.4,13.6-10.3,19.6-20.7c1.9-3.4,3.5-5.3,4.7-5.8c6.8-1.5,12.7-3.4,17.8-5.8c1-0.4,2.1-0.9,3.1-1.4
		c-0.1,0.1-0.1,0.2-0.2,0.3c-1.2,2.4-2.7,5-4.4,7.6c-1.7,2.7-3.3,5.4-4.7,8.4c-1.9,3.4-3.5,6.6-4.7,9.6c-1.2,3-1.8,5.1-1.8,6.4
		c0,1,0.5,2.2,1.5,3.6c0.7,1,1.8,1.5,3.3,1.5c0.7,0,1.4-0.2,2-0.5c0.6-0.4,1.7-1.2,3.3-2.5c1.6-1.3,3.7-3.4,6.4-6.2
		c2.7-2.8,6.4-6.7,11.3-11.8c2.9-3.1,6.1-6.4,9.6-9.6c3.5-3.3,6.8-6.3,9.8-9.1c3-2.8,5.6-5,7.6-6.5c2.1-1.6,3.1-2.1,3.1-1.6
		c0,1-0.4,2.5-1.1,4.7c-1.2,3.4-2.1,7.1-2.7,11.1c-0.6,4-0.7,7-0.2,8.9c0.5,4.8,2.1,8,4.7,9.4c1.5,0.7,3.6,1,6.4,0.9
		c2.8-0.1,5.4-0.5,7.8-1.3c1.9-0.7,3.7-1.5,5.3-2.2c1.6-0.7,3.3-1.8,5.1-3.1c1.8-1.3,3.8-3,6-5.1c2.1-2,4.7-4.5,7.5-7.3
		c-0.9,1.7-1.8,3.4-2.6,5.1c-1.6,3.3-2.6,5.9-3.1,7.8c-1.5,8,0.1,13.1,4.7,15.3c2.2,1.2,4.5,1.6,6.9,1.1c2.4-0.5,5.6-1.8,9.4-4
		c2.2-1.2,4.8-3,7.8-5.3c3-2.3,6.2-4.9,9.4-7.8c3.3-2.9,6.6-6,10-9.3c0.7-0.6,1.3-1.3,1.9-2c-1.2,2.6-2.2,5.4-2.9,8.3
		c-1.1,4.8-1.4,9-0.9,12.3c0.2,1.2,1,2.6,2.2,4.2c1.2,1.6,2.4,2.6,3.6,3.1c1.2,0.5,2.7,0.6,4.5,0.4c1.8-0.2,3.5-0.6,4.9-1.1
		c7-3.4,13.6-10.3,19.6-20.7c1.9-3.4,3.5-5.3,4.7-5.8c6.8-1.5,12.7-3.4,17.8-5.8c2.4-1,4.8-2.2,7.3-3.6c2.4-1.5,4.6-2.8,6.5-4.2
		c1.9-1.3,3.4-2.4,4.4-3.3c1-0.8,1.1-1.3,0.4-1.3c-0.5,0-2.8,1.2-6.9,3.6c-4.8,2.7-9.7,5-14.7,7.1c-5,2.1-9.1,3.3-12.5,3.8l-2.2,0.4
		l1.5-3.6c1.2-3.4,1.8-6.8,1.8-10.3c0-2.6-0.1-5.2-1.8-7.1c-1.7-1.9-4.3-2.2-5.4-2.2c-9.1,0.1-14.2,3.4-16.3,5.1
		c-2.3,1.8-4.3,4-6.5,6.9c-1.1,1.4-2.1,2.7-3,4.1c-5.7,5.6-11.3,10.9-16.8,15.7c-5.9,5.2-10.8,9-14.7,11.4c-9.4,6.5-15.4,8-17.8,4.4
		c-0.5-0.7-0.7-1.3-0.7-1.8c0-0.5,0.2-1.6,0.7-3.3c0.7-2.7,2.6-6.7,5.6-12c3-5.3,6.2-10.6,9.6-16c2.9-4.8,4.7-8,5.3-9.4
		c0.6-1.5,0.4-2.7-0.5-3.6c-0.5-0.7-1.2-1.1-2.2-1.1c-1.2,0-2.7,0.9-4.4,2.5c-1.7,1.7-3.5,4.2-5.8,7.3c-5.5,7.3-14.8,16.4-17.6,18.7
		c-2.8,2.3-5.6,4.2-8.5,5.6c-2.7,1.2-5.7,2.3-9.1,3.3c-3.4,1-5.7,1.2-6.9,0.7c-1.7-0.5-2.7-2-2.9-4.5c-0.2-2.5,0.1-6.6,1.1-12.2
		c0.7-3.6,1.2-6.5,1.5-8.5c0.2-2.1,0.4-3.6,0.5-4.5c0.1-1,0.2-1.6,0.2-2c0-0.4-0.1-0.8-0.4-1.3c-0.5-1.2-1.5-1.9-2.9-2
		c-1.5-0.1-2.9,0.3-4.4,1.3c-1.5,1-3.5,2.5-6,4.5c-2.5,2.1-5.4,4.5-8.7,7.3c-3.3,2.8-6.5,5.7-9.8,8.7c-3.3,3-6.4,5.9-9.3,8.5
		c-3.6,3.6-5.8,5.4-6.5,5.4c0.2-0.2,0.5-0.6,0.7-1.1c0.2-0.5,0.4-1,0.5-1.5c0.1-0.5,0.4-1.1,0.9-1.8c2.7-4.8,5.3-9.7,8-14.5
		c2.7-4.8,4.6-8.6,5.8-11.3c3.1-5.8,3.4-9,0.7-9.4c-1.7-0.2-3.5,0.9-5.4,3.4c-1.5,2-3,6.2-8.3,10.8c-2.5,2.2-5.9,3.9-9,5.2
		c-5,2.1-9.1,3.3-12.5,3.8l-2.2,0.4l1.5-3.6c1.2-3.4,1.8-6.8,1.8-10.3c0-3.5-0.6-5.9-1.8-7.1c-1.2-1.5-3-2.2-5.4-2.2
		c-2.2,0-4.5,0.7-6.9,2.2c-1.5,0.5-2.8,0.7-4,0.7c-1.2-0.2-3,0.5-5.4,2.2c-1.9,1.5-4.1,3.8-6.5,6.9c-2.4,3.1-4.5,6.1-6.2,8.7
		c-0.3,0.4-0.5,0.9-0.7,1.3c-2.5,2.4-5.5,5.4-9.1,8.9c-6.3,6.3-11.5,11.4-15.6,15.3c-4.1,3.9-7.6,7-10.5,9.3
		c-2.9,2.3-5.4,3.9-7.4,4.7c-2.1,0.8-3.9,1.4-5.6,1.6c-4.8,0.7-6.4-2.9-4.7-10.9c3.6-18.2,17.2-45.6,40.7-82.4l6.2-9.8l10.5-0.4
		c15-0.5,26-0.8,32.9-1.1c6.9-0.2,11.7-0.4,14.3-0.4h5.1l-2.2,1.1c-1.2,0.5-2,1.1-2.4,1.8c-0.4,0.7-0.2,1.1,0.5,1.1
		c1.2,0,3.5-0.2,6.9-0.5c3.4-0.4,5.7-0.8,6.9-1.3c2.4-0.5,3.8-1.7,4-3.6c0.2-1.9-0.7-3.3-2.9-4c-0.7-0.2-1.4-0.4-2-0.5
		c-0.6-0.1-1.9-0.2-3.8-0.2c-1.9,0-5,0.1-9.3,0.4c-4.2,0.2-10.2,0.7-18,1.5c-25.4,2.2-37.9,2.8-37.4,1.8c0-0.2,0.6-1.3,1.8-3.1
		c1.2-1.8,2.7-3.9,4.4-6.2c1.7-2.3,3.5-4.7,5.3-7.1c1.8-2.4,3.5-4.6,4.9-6.5c1.5-1.9,2.8-3.8,4-5.4c1.2-1.7,1.8-2.8,1.8-3.3
		c0-1.9-1.2-2.9-3.6-2.9c-1.9,0-4.6,2-8,6c-3.4,4-8.1,10.5-14.2,19.4l-6.5,9.8l-13.1,0.7c-7.5,0.2-14.3,0.2-20.5-0.2
		c-6.2-0.4-11.3-1-15.4-2c-2.7-0.7-4.5-1-5.6-0.7c-1.1,0.2-1.9,1-2.4,2.2c-1.2,1.7-0.5,3.1,2.2,4.4c0.7,0.5,2.1,0.8,4,0.9
		c1.9,0.1,5.7,0.2,11.3,0.2c3.6,0,7.9-0.1,12.7-0.2c4.8-0.1,9-0.3,12.3-0.5c3.1-0.2,5.9-0.4,8.2-0.4c2.3,0,3.6,0,3.8,0
		c-0.5,0.7-1,1.6-1.5,2.5c-0.5,1-1,2-1.6,3.1c-0.6,1.1-1.3,2.2-2,3.4c-10.2,17.2-14.5,30.6-22.5,41.4c-2.9,3.9-12,15.6-25.5,24.7
		c-2.7,1.2-5.7,2.3-9.1,3.3c-3.4,1-5.7,1.2-6.9,0.7c-1.7-0.5-2.7-2-2.9-4.5c-0.2-2.5,0.1-6.6,1.1-12.2c0.7-3.6,1.2-6.5,1.5-8.5
		c0.2-2.1,0.4-3.6,0.5-4.5c0.1-1,0.2-1.6,0.2-2c0-0.4-0.1-0.8-0.4-1.3c-0.5-1.2-1.5-1.9-2.9-2c-1.5-0.1-2.9,0.3-4.4,1.3
		c-1.5,1-3.5,2.5-6,4.5c-2.5,2.1-5.4,4.5-8.7,7.3c-3.3,2.8-6.5,5.7-9.8,8.7c-3.3,3-6.4,5.9-9.3,8.5c-3.6,3.6-5.8,5.4-6.5,5.4
		c0.2-0.2,0.5-0.6,0.7-1.1c0.2-0.5,0.4-1,0.5-1.5c0.1-0.5,0.4-1.1,0.9-1.8c2.7-4.8,5.3-9.7,8-14.5c1.8-3.3,3.3-6,4.4-8.3l2.3-4.1
		c1.8-3.1,3.7-6.2,5.7-9.3c2.9-4.8,4.7-8,5.3-9.4c0.6-1.5,0.4-2.7-0.5-3.6c-0.5-0.7-1.2-1.1-2.2-1.1c-1.2,0-2.7,0.9-4.4,2.5
		c-1.7,1.7-3.6,4.1-5.8,7.3c-1.2,1.8-1.5,2.2-4.3,4.5c-2.8,2.3-5.6,4.2-8.5,5.6c-2.7,1.2-6.7,2.7-9.1,3.3c-1.8,0.4-10.4,0.9-11,0.9
		c-1.6,0-1.5,0.1-0.9-0.9c0.5-0.9,3.4-6.3,8.7-16c5.3-9.7,12-21.7,20-35.9c5.1-9,9.2-16.2,12.3-21.8c3.1-5.6,5.7-10.1,7.6-13.6
		c1.9-3.5,3.4-6.4,4.5-8.5c1.1-2.2,2.2-4.4,3.4-6.5c5.1-11.1,6.7-17.7,4.7-19.6c-0.7-1-1.7-1.3-2.9-1.1c-2.7,0-6.8,2.2-12.5,6.7
		c-5.7,4.5-13.5,11.7-23.4,21.6c-10.9,10.9-22.5,23.2-34.9,37s-25.8,29.3-40.3,46.5c-3.9,4.8-7.3,8.8-10.2,12
		c-2.9,3.1-4.6,4.7-5.1,4.7c-0.2,0-1.5,0.1-3.6,0.4c-2.2,0.2-4.7,0.5-7.6,0.7c-2.9,0.5-5.4,0.8-7.4,0.9c-2.1,0.1-3.2,0.1-3.4-0.2
		c0-0.5-0.1-1-0.4-1.5c-0.5-0.7-0.9-1.8-1.1-3.3c-3.1-11.4-9.3-20.7-18.3-28c-9.1-7.3-20.4-12.1-34-14.5
		c-12.6-2.2-25.4-1.9-38.3,0.7c-13,2.7-24.5,7.4-34.7,14.2c-8,5.3-13.1,10.7-15.4,16c-2.3,5.3-1.4,10.2,2.7,14.5
		c4.4,5.1,13.4,8.8,27.2,11.3c2.2,0.5,5.6,0.8,10.3,0.9c4.7,0.1,9.9,0.2,15.6,0.2c5.7,0,11.5-0.1,17.4-0.2
		c5.9-0.1,11.3-0.4,16.2-0.9c11.4-1,21.5-1.8,30.5-2.5c9-0.7,14.4-1.2,16.3-1.5l3.3-0.4v6.2c0,3.1-0.2,6.6-0.7,10.3
		c-0.5,3.8-1.2,7.1-2.2,10c-0.2,1.2-0.9,2.5-1.8,4c-1,1.5-2.3,3.4-4,5.8c-2.7,3.4-5.1,7-7.4,10.7c-2.3,3.7-3.9,6.6-4.9,8.5
		c-0.5,1.7-0.7,3.4-0.7,5.1c0,1.7,0.4,2.8,1.1,3.3c2.2,1.2,4.4,0.5,6.7-2c2.3-2.5,5.1-7.7,8.5-15.4c0.7-1.7,1.5-3.2,2.2-4.5
		c0.7-1.3,1.7-2.9,2.9-4.7c1.2-1.8,3-4.1,5.3-6.9c2.3-2.8,5.5-6.6,9.6-11.4c4.6-5.6,8.5-10.4,11.8-14.5c3.3-4.1,5-6.3,5.3-6.5
		c0.2,0,3-0.2,8.2-0.7c5.2-0.5,10.9-1,17.2-1.6c6.3-0.6,14.6-1.3,25.1-2c0.2,0.2-0.3,1.6-1.6,4.2c-1.3,2.5-3,5.8-4.9,9.6
		c-11.1,20.3-19.6,37.5-25.2,51.4c-5.7,13.9-9.7,26.7-12.2,38.3c-1.2,5.6-1.7,11-1.4,16.3c0.2,5.3,1,8.8,2.2,10.5
		c1.7,1.7,3.4,2.1,5.1,1.1c0.5-0.5,0.5-1.2,0-2.2c-0.5-0.7-0.7-1.7-0.7-2.9c0-1.2,0.2-3.6,0.7-7.3c0.7-9.2,2.7-19.2,6-30.1
		c3.3-10.9,8-23.5,14.3-37.8c1.2-3.1,3.2-7.6,6-13.3c2.8-5.7,5.6-11.4,8.5-17.1c2.9-5.7,5.4-10.6,7.6-14.9c2.2-4.2,3.4-6.4,3.6-6.4
		c0.2-0.2,1.6-0.4,4-0.5c0.6,0,7.1-0.5,7.8-0.5C246.7,222.7,255.4,221.5,258.4,220z M586.4,221.6c1.5-2.9,4.1-5.2,8-6.9
		c1.9-1,3.3-0.8,4,0.4c0.5,0.7,0.8,1.5,0.9,2.2c0.1,0.7,0.2,2.3,0.2,4.7c-0.5,3.4-1.1,6.3-1.8,8.7c-0.7,1.7-1.2,2.7-1.5,3.1
		c-0.2,0.4-0.9,0.5-1.8,0.5c-1.5,0-3-0.4-4.7-1.3c-1.7-0.8-2.9-1.8-3.6-2.7C584.3,227.6,584.4,224.7,586.4,221.6z M569.3,247.7
		c1.2-2.9,2.2-5.3,3.1-7.3c0.8-1.9,2.4-4.5,4.5-7.6c1.2-2.7,2.2-4.1,2.9-4.4c0.2,0,0.4,0.4,0.4,1.1c1.2,4.1,4.8,6.8,10.9,8l3.3,0.7
		l-2.9,5.1c-4.1,7-8.7,11.9-13.8,14.5C568.5,262.2,565.7,258.8,569.3,247.7z M404.5,221.6c1.5-2.9,4.1-5.2,8-6.9
		c1.9-1,3.3-0.8,4,0.4c0.5,0.7,0.8,1.5,0.9,2.2c0.1,0.7,0.2,2.3,0.2,4.7c-0.5,3.4-1.1,6.3-1.8,8.7c-0.7,1.7-1.2,2.7-1.5,3.1
		c-0.2,0.4-0.9,0.5-1.8,0.5c-1.5,0-3-0.4-4.7-1.3c-1.7-0.8-2.9-1.8-3.6-2.7C402.4,227.6,402.5,224.7,404.5,221.6z M387.4,247.7
		c1.2-2.9,2.2-5.3,3.1-7.3c0.8-1.9,2.4-4.5,4.5-7.6c1.2-2.7,2.2-4.1,2.9-4.4c0.2,0,0.4,0.4,0.4,1.1c1.2,4.1,4.8,6.8,10.9,8l3.3,0.7
		l-2.9,5.1c-4.1,7-8.7,11.9-13.8,14.5C386.6,262.2,383.8,258.8,387.4,247.7z M135.4,227c-1.5,0.2-5.1,0.6-10.9,1.1
		c-5.8,0.5-12.2,1.1-19.2,1.8c-7,0.7-13.8,1.4-20.3,2c-6.5,0.6-11.1,0.9-13.8,0.9c-2.2,0.2-4.8,0.4-8,0.5c-3.1,0.1-6.3,0.2-9.4,0.2
		c-3.1,0-6.1-0.1-8.9-0.2c-2.8-0.1-4.8-0.2-6-0.2c-21.5-2.2-33.5-7.4-36-15.6c-0.7-2.4-0.3-5.1,1.3-8.2c1.6-3,4.1-6,7.4-9.1
		c3.4-3,7.5-5.9,12.3-8.5c4.8-2.7,10.2-5,16-6.9c5.8-1.9,11-3.3,15.4-4c4.5-0.7,10.2-1.1,17.2-1.1c6.8,0,12.2,0.3,16.2,0.9
		c4,0.6,8.7,1.9,14,3.8c9.9,3.4,18.1,8.6,24.5,15.6c6.4,7,10.6,15.1,12.5,24.3l0.4,2.2L135.4,227z M159.7,233.2
		c-1,1.2-2.1,2.5-3.3,3.8c-1.2,1.3-2.4,2.7-3.6,4.2c-2.7,3.4-4.7,5.9-6.2,7.6c-1.5,1.7-2.5,2.9-3.1,3.6c-0.6,0.7-0.9,1-0.9,0.9
		c0-0.1,0.1-0.4,0.4-0.9c0-0.2,0.1-1.5,0.2-3.8c0.1-2.3,0.3-4.8,0.5-7.4c0.2-4.8,0.4-7.7,0.5-8.7c0.1-1,0.4-1.6,0.9-1.8
		c0.2,0,1.3-0.1,3.3-0.2c1.9-0.1,3.9-0.3,5.8-0.5c1.9-0.2,4.6-0.4,8-0.4C161.6,230.8,160.7,232,159.7,233.2z M226.2,219.7l-6.5,0.4
		c-1.9,0.2-5.1,0.5-9.6,0.7c-4.5,0.2-9,0.6-13.6,1.1c-4.6,0.5-8.2,0.8-10.7,0.9c-2.5,0.1-4.5,0.2-5.8,0.2h-2.4
		c-0.2,0-0.4-0.1-0.4-0.4c0-0.2,2.1-3,6.2-8.2c4.1-5.2,9.1-11.3,14.9-18.3c5.8-7,11.8-14.2,18-21.4c6.2-7.3,11.3-13.2,15.4-17.8
		c6.8-7.7,13.3-14.9,19.4-21.6c6.2-6.7,11.9-12.6,17.1-17.8c5.2-5.2,9.7-9.4,13.4-12.7c3.8-3.3,6.6-5.3,8.5-6c0.5,0,0.9-0.1,1.3-0.2
		c0.4-0.1,0.7-0.2,0.9-0.2h0.4c0.5,0.5,0.1,2.4-1.3,5.6c-1.3,3.3-3,7-4.9,11.1c-1,2.2-2.1,4.4-3.5,6.7c-1.3,2.3-3.3,5.6-5.8,10
		c-2.5,4.4-5.9,10-10,17.1c-4.1,7-9.4,16.1-16,27.2c-1.9,3.4-3.9,6.8-5.8,10.3c-1.9,3.5-3.8,6.8-5.6,9.8c-1.8,3-3.4,5.8-4.9,8.2
		c-1.5,2.4-2.5,4.4-3.3,5.8L226.2,219.7z M273.7,335.6l1.8,1.5c3.9,2.7,9.2,0.6,16-6.2c2.2-2.2,4.1-4.7,5.8-7.4
		c1.7-2.8,2.5-4.8,2.5-6c0-1.2-0.7-2.5-2-4c-1.3-1.5-2.6-2.2-3.8-2.2c-1.5,0-3.3,0.5-5.6,1.5c-2.3,1-4.5,2.2-6.7,3.6
		c-3.9,2.7-7.3,5.8-10.3,9.3c-3,3.5-5.5,7.2-7.4,11.1c-1.9,3.9-3.1,7.6-3.6,11.3c-0.5,3.6-0.1,6.7,1.1,9.1c1.2,2.7,2.8,4.4,4.7,5.3
		c1.9,0.9,4.2,1.2,6.9,0.9c1.9,0,3.5-0.1,4.7-0.4c1.2-0.2,2.8-0.8,4.7-1.8c2.7-1.2,6.2-3.1,10.5-5.8c4.4-2.7,8.6-5.6,12.7-8.7
		c2.2-1.7,4.8-3.9,8-6.5c3.1-2.7,6.1-5.3,8.9-7.8c2.8-2.5,5.1-4.7,7.1-6.5c1.9-1.8,2.9-2.8,2.9-3.1c0-0.7-0.7-0.7-2,0.2
		c-1.3,0.9-3.9,2.8-7.8,6c-12.3,10.4-23.1,18.2-32.1,23.2c-9.1,5.1-15.4,7-19.1,5.8c-4.6-1.5-4.5-7.4,0.4-17.8L273.7,335.6z
		 M278.5,328.3c0.7-1,1.6-2,2.5-3.1c1-1.1,1.9-2.2,2.9-3.3c1-1.1,1.8-1.9,2.5-2.4c1.5-1.2,3.1-2.2,4.9-3.1c1.8-0.8,3.1-1.4,3.8-1.6
		c0.5,0,0.7,0.6,0.7,1.8c0,1.2-1.2,3-3.6,5.4c-2.4,2.4-4.8,4.4-7.3,5.8c-1.9,1-3.7,1.7-5.3,2.2c-1.6,0.5-2.4,0.5-2.4,0
		C277.4,329.9,277.7,329.3,278.5,328.3z M479.7,475.7c-2.5-1.2-7.7-2.2-15.4-2.9c-2.7-0.2-7.7-0.5-15.1-0.7
		c-7.4-0.2-15.6-0.4-24.5-0.4c-9,0-17.9,0-26.7,0c-8.8,0-15.9,0.1-21.2,0.4c-5.1,0.2-9.4,0.4-13.1,0.5c-3.6,0.1-5.6,0.2-5.8,0.2
		c3.4-7,6.4-13.1,8.9-18.2c2.5-5.1,5.3-10.5,8.4-16.2c3-5.7,5.7-10.7,8.2-15.1c1.7-2.9,3-5.2,4-6.9c1-1.7,1.8-3,2.4-3.8
		c0.6-0.8,1.1-1.4,1.5-1.6c0.4-0.2,0.9-0.5,1.6-0.7c13.8-3.4,26.9-8.3,39.2-14.7c12.3-6.4,23.1-14.2,32.3-23.4
		c16.5-15.7,26-32,28.7-48.7c1.7-10.9-0.2-18-5.8-21.4c-1.9-1-3.6-1.5-5.1-1.5c-6.1,0-13.2,3-21.4,9.1c-1.7,1.5-3.7,3.3-6,5.4
		c-2.3,2.2-4.7,4.5-7.3,7.1c-2.5,2.5-5,5.1-7.4,7.8c-2.4,2.7-4.7,5.2-6.9,7.6c-2.7,3.4-4.5,5.6-5.6,6.7c-1.1,1.1-1.9,1.5-2.4,1.3
		c-0.5,0-1.3-0.2-2.5-0.5c-1.2-0.4-2.5-0.8-4-1.3c-6.1-1.9-11.3-3.2-15.8-3.8c-4.5-0.6-10.2-1.1-17.2-1.6c-7,0-12.7,0.2-16.9,0.7
		c-4.2,0.5-8.8,1.3-13.6,2.5c-8,2.4-15,5.9-20.9,10.3c-5.9,4.5-10.2,9.5-12.9,15.1c-1,1.9-1.6,3.5-1.8,4.7c-0.2,1.2-0.5,3-0.7,5.4
		c-0.2,4.1,0.2,7.8,1.5,11.1c1.2,3.3,3.4,6.6,6.5,10c6.3,6.3,14.4,10.7,24.3,13.1c2.4,0.5,4.7,0.8,6.9,0.9c2.2,0.1,5.9,0.2,11.3,0.2
		c5.8,0,9.3,0.1,10.3,0.2c1.1,0.1,1.4,0.5,0.9,1.3c-0.7,1.2-1.9,3.3-3.6,6.2c-0.7,1.5-2.4,4.5-4.9,9.3c-2.5,4.7-5.2,9.8-8,15.3
		c-2.8,5.4-5.4,10.5-7.8,15.1c-2.4,4.6-4,7.6-4.7,9.1c-1,2.7-1.8,4-2.5,4c-0.2,0.2-1.2,0.4-2.9,0.5c-1.7,0.1-3.8,0.3-6.2,0.5
		c-6.5,0.5-11.9,0.9-16.2,1.3c-4.2,0.4-8,0.7-11.3,0.9c-3.3,0.2-6.2,0.5-8.9,0.9c-2.7,0.4-5.6,0.8-8.7,1.3
		c-29.5,3.9-48.1,9.4-55.6,16.7c-5.1,4.4-5.4,9.7-1.1,16c1.9,2.9,4.7,5.9,8.2,9.1c3.5,3.1,7.4,6,11.6,8.5c4.2,2.5,8.6,4.7,13.1,6.5
		c4.5,1.8,8.7,3,12.5,3.4c2.7,0.2,5.6,0.2,8.9,0c3.3-0.2,6.2-0.6,8.9-1.1c2.7-0.7,5.9-2.1,9.6-4c3.8-1.9,6.8-3.9,9.3-5.8
		c8.5-7,18.3-20.6,29.4-40.7l5.4-9.1l3.3-0.7c1.2,0,5,0,11.3,0c6.3,0,13.8,0,22.5,0c8.7,0,18,0.1,28,0.4c9.9,0.2,19.1,0.5,27.4,0.7
		c8.4,0.2,15.3,0.4,20.9,0.5C473.8,478.9,482.2,476.9,479.7,475.7z M427.6,354.7c0.2-0.2,1.3,0.4,3.3,1.8c1.5,1.5,2.4,2.2,2.9,2.2
		c0.5,0,1-0.2,1.6-0.7c0.6-0.5,1-1,1.3-1.5c0.5-0.5,0.4-1.5-0.4-2.9c-0.7-1.5-1.6-2.5-2.5-3.3c-1.2-0.5-1.8-1.1-1.8-1.8
		c0-0.2,0.8-1.4,2.4-3.5c1.6-2.1,3.4-4.4,5.6-6.9c2.2-2.5,4.5-5.2,7.1-8c2.5-2.8,4.8-5.3,6.7-7.4c11.6-11.6,20.9-17.7,28-18.2
		c1.7,0,3,0.2,4,0.7c3.4,1.5,5,5.7,4.7,12.7c0,3.6-0.4,7.1-1.3,10.5c-0.9,3.4-2.2,7-4.2,10.9c-4.8,10.9-12.3,21-22.3,30.3
		c-10,9.3-21.7,17.2-35,23.8c-5.6,2.7-10.3,4.8-14.2,6.4c-3.9,1.6-7.9,3-12,4.2c-3.4,1.2-5.6,1.9-6.5,2c-1,0.1-1.5-0.1-1.5-0.5
		c2.2-3.6,4.1-6.8,5.8-9.4c1.7-2.7,3.5-5.5,5.4-8.5c1.9-3,3.7-5.9,5.4-8.5c4.4-6.5,8.2-12.2,11.6-16.9
		C425.1,357.5,427.1,355,427.6,354.7z M380.4,408.8c-1,0-2.4,0.1-4.2,0.2c-1.8,0.1-3.7,0.3-5.6,0.5c-8.5,0.5-16.3-0.5-23.6-2.9
		c-7.3-2.4-13.2-5.9-17.8-10.5c-2.7-2.7-4.5-5.1-5.4-7.4c-1-2.3-1.5-5.5-1.5-9.6c-0.2-2.7-0.2-4.5,0-5.4c0.2-1,1-2.7,2.2-5.1
		c2.7-5.6,7.3-10.5,13.8-14.7c6.5-4.2,14.6-7.3,24.3-9.3c2.2-0.5,4.7-0.8,7.4-1.1c2.8-0.2,5.7-0.4,8.9-0.4c6.8,0,12.3,0.4,16.7,1.1
		c2.7,0.5,5.5,1.1,8.5,1.8c3,0.7,5.8,1.5,8.4,2.2c2.5,0.7,4.7,1.4,6.4,2c1.7,0.6,2.5,1,2.5,1.3c0,1-1.7,3.5-5.1,7.6
		c-1.7,2.2-3.8,5.1-6.4,8.9c-2.5,3.8-5.1,7.6-7.8,11.6c-2.7,4-5.3,7.9-7.8,11.6c-2.5,3.8-4.5,6.8-6,9.3l-4.7,8L380.4,408.8z
		 M345.5,479.7c-0.5,1.2-1.5,3.1-3.1,5.8c-1.6,2.7-3.3,5.5-5.3,8.5c-1.9,3-3.8,5.9-5.6,8.7c-1.8,2.8-3.2,4.9-4.2,6.4
		c-1.2,1.7-2.8,3.7-4.7,6c-1.9,2.3-3.8,4.4-5.4,6.4c-6.5,6.5-13.3,10.6-20.3,12.3c-2.7,0.7-6,1-10,0.9c-4-0.1-7.4-0.5-10.3-1.3
		c-4.4-1.2-9-3-14-5.3c-5-2.3-9.1-4.8-12.5-7.4c-3.6-2.7-6.8-5.7-9.4-9.1c-2.7-3.4-4-6.2-4-8.4c0-6.5,8.8-12,26.3-16.3
		c17.5-4.4,42.9-7.4,76.1-9.1l7.6-0.4L345.5,479.7z M684.4,425.2c-0.2,0-1.5,1.1-3.8,3.3c-2.3,2.2-5.1,4.8-8.5,8
		c-7.8,7.8-14.2,13.6-19.2,17.6c-5.1,4-9.3,6.6-12.7,7.8c-1.2,0.5-2.1,0.8-2.7,0.9c-0.6,0.1-1.3-0.1-2-0.5c-1.7-0.5-2.7-1.8-2.9-4
		c-0.5-2.7-0.3-5.8,0.5-9.4c0.8-3.6,2.6-8.6,5.3-14.9c1.9-4.1,2.8-6.9,2.7-8.4c-0.1-1.5-1.2-2.2-3.1-2.2c-1,0-1.8-0.6-2.5-1.8
		c-0.7-2.2-2.7-3.3-5.8-3.3c-1.9,0-3.9,0.4-6.1,1.2c-1.5,0.4-4.4,1.5-8.8,3.5c-5.6,2.7-9.6,4-12,4c-2.4,0.5-3.9,0.3-4.5-0.5
		c-0.6-0.8-1.5-3-2.7-6.4c-0.2-1.2-0.6-2.4-1.1-3.6c-0.5-1.2-1-2.1-1.5-2.5c-1.9-1.9-4.6-1.8-8,0.4c-1.7,1.2-4.4,3.6-8.2,7.1
		c-3.8,3.5-7,6.8-9.6,10l-3.6,4.4l3.3-5.4c2.4-4.1,4.2-7.3,5.4-9.6c1.2-2.3,2.1-4,2.5-5.1c0.5-1.1,0.5-1.8,0.2-2.2
		c-0.4-0.4-0.9-0.7-1.6-0.9c-1.7-0.2-4.2,1.6-7.6,5.6c-3.4,4-8.1,10.5-14.2,19.4c-1.3,1.9-2.5,3.8-3.7,5.6c-2.3,1.9-4.7,3.9-7,5.9
		c-2.7,2.3-4.7,4.1-6.2,5.3c-3.1,2.2-6.4,4.1-9.6,5.8c-3.3,1.7-5.5,2.5-6.7,2.5c-3.1,0-3.8-3.5-1.8-10.3c1.9-6.9,6-15.8,12.3-26.7
		c1.9-3.4,3-5.7,3.3-7.1c0.2-1.3,0-2.4-0.7-3.1c-1.7-1-4,0.5-6.9,4.4c-1,1.2-2.9,3.4-5.8,6.5c-2.9,3.1-6.1,6.5-9.6,10
		c-3.5,3.5-7,6.8-10.3,10c-3.4,3.1-5.8,5.3-7.3,6.5c-1.9,1.5-3.8,2.7-5.6,3.8c-1.8,1.1-3.1,1.6-3.8,1.6c-0.7,0-0.9-0.9-0.4-2.7
		c0.5-1.8,1.4-4.1,2.7-6.9c1.3-2.8,3-5.9,5.1-9.3c2.1-3.4,4.3-6.8,6.7-10.2c2.4-3.1,3.6-5.2,3.6-6.2c0-0.7-0.4-1.5-1.1-2.2
		c-0.7-0.7-1.6-1.1-2.5-1.1c-1.2,0-2.8,1.1-4.9,3.3c-1.5,1.6-3.1,3.6-4.7,5.8c-2.2,2.1-4.9,4.6-8.2,7.6
		c-7.8,7.8-14.2,13.6-19.2,17.6c-5.1,4-9.3,6.6-12.7,7.8c-1.2,0.5-2.1,0.8-2.7,0.9c-0.6,0.1-1.3-0.1-2-0.5c-1.7-0.5-2.7-1.8-2.9-4
		c-0.5-2.7-0.3-5.8,0.5-9.4c0.8-3.6,2.6-8.6,5.3-14.9c1.9-4.1,2.8-6.9,2.7-8.4c-0.1-1.5-1.2-2.2-3.1-2.2c-1,0-1.8-0.6-2.5-1.8
		c-0.7-2.2-2.7-3.3-5.8-3.3c-3.1,0-6.7,1.1-10.5,3.3c-3.6,1.9-7.2,4.4-10.7,7.3c-3.5,2.9-6.5,6.1-9.1,9.4c-2.5,3.4-4.6,6.9-6.2,10.5
		c-1.6,3.6-2.4,6.9-2.4,9.8c0,4.1,1.2,6.9,3.6,8.4c1.2,1,2.8,1.2,4.7,0.7c2.9-0.2,6-1.7,9.4-4.4c3.4-2.7,7.9-7.4,13.4-14.2
		c0.7-1,1.5-1.9,2.2-2.7c0.7-0.8,1.3-1.5,1.8-2l1.8-1.8v1.1c0,0.5-0.1,0.8-0.2,0.9c-0.1,0.1-0.2,0.4-0.2,0.9c-0.5,2.2-0.6,5-0.4,8.5
		c0.2,3.5,0.7,6,1.5,7.4c2.9,5.6,8.2,6.4,16,2.5c3.9-1.9,8.9-5.6,15.1-11.1c4.4-3.9,9-8.3,13.6-13.1c-0.2,0.4-0.5,0.8-0.7,1.2
		c-1.9,3.5-3.3,6.6-4,9.3c-1.7,5.6-1.4,9.7,0.9,12.3c2.3,2.7,5.9,2.7,10.7,0c3.6-2.4,10.9-9.4,21.8-21.1c2.9-3.1,4.7-5,5.4-5.4
		c0.7-0.5,0.8-0.2,0.4,0.7c-1.2,2.9-2.3,5.9-3.3,9.1c-1,3.1-1.6,5.7-1.8,7.6c-0.5,3.4-0.2,6.4,0.9,8.9c1.1,2.5,2.6,4.2,4.5,4.9
		c4.1,1.5,10.5-1.1,19.2-7.6c2.2-1.7,5.3-4.4,9.3-8c0.1-0.1,0.2-0.2,0.3-0.3c-1.9,3.8-2.9,6.5-2.9,7.9c0,0.5,0.1,1,0.4,1.6
		c0.2,0.6,0.5,1.2,0.7,1.6c1.2,1.7,2.9,1.9,5.1,0.7c0.7-0.5,2.4-2.4,4.9-5.6c2.5-3.3,5.9-7.7,10-13.3c3.1-4.4,6.4-8.5,9.8-12.5
		c3.4-4,6.4-7.3,9.1-10c2.2-1.9,4.1-3.5,5.8-4.5c1.7-1.1,2.7-1.4,2.9-0.9c0.2,0,0.4,0.4,0.5,1.3c0.1,0.9,0.3,1.9,0.5,3.1
		c0.5,2.9,1.1,5,1.8,6.2c1.5,3.1,4.1,4.7,8,4.7c1.7,0,4.1-0.6,7.2-1.7c-3,2.6-5.6,5.3-7.8,8.3c-2.5,3.4-4.6,6.9-6.2,10.5
		c-1.6,3.6-2.4,6.9-2.4,9.8c0,4.1,1.2,6.9,3.6,8.4c1.2,1,2.8,1.2,4.7,0.7c2.9-0.2,6-1.7,9.4-4.4c3.4-2.7,7.9-7.4,13.4-14.2
		c0.7-1,1.5-1.9,2.2-2.7c0.7-0.8,1.3-1.5,1.8-2l1.8-1.8v1.1c0,0.5-0.1,0.8-0.2,0.9c-0.1,0.1-0.2,0.4-0.2,0.9c-0.5,2.2-0.6,5-0.4,8.5
		c0.2,3.5,0.7,6,1.5,7.4c2.9,5.6,8.2,6.4,16,2.5c3.9-1.9,8.9-5.6,15.1-11.1c6.2-5.4,12.5-11.8,19.1-19.1
		C684.1,428.1,686.1,425.2,684.4,425.2z M431.2,438.6c-3.6,4.6-7.3,8.8-11.1,12.7c-3.8,3.9-6.7,6.5-8.9,8c-2.7,1.7-4.4,2.5-5.1,2.5
		c-2.7,0-2.3-3.4,1.1-10.2c2.7-5.1,6.4-10.2,11.1-15.3c4.7-5.1,9.4-8.7,14-10.9c2.4-1.2,4.1-1.7,5.1-1.5c0.7,0,1.2,0.6,1.5,1.8
		c0.2,1.2-0.1,2.5-0.9,4C437.1,431.4,434.8,434.3,431.2,438.6z M624.8,438.6c-3.6,4.6-7.3,8.8-11.1,12.7c-3.8,3.9-6.7,6.5-8.9,8
		c-2.7,1.7-4.4,2.5-5.1,2.5c-2.7,0-2.3-3.4,1.1-10.2c2.7-5.1,6.4-10.2,11.1-15.3c4.7-5.1,9.4-8.7,14-10.9c2.4-1.2,4.1-1.7,5.1-1.5
		c0.7,0,1.2,0.6,1.5,1.8c0.2,1.2-0.1,2.5-0.9,4C630.7,431.4,628.5,434.3,624.8,438.6z M552.6,196.1c-1.7,0.7-3,0.9-4,0.4
		c-1.9-0.5-3-1.6-3.1-3.4c-0.1-1.8,0.7-3.6,2.4-5.3c1.2-1.2,2.4-1.8,3.6-1.8c2.2-0.5,3.6,0.6,4.4,3.3c0.2,1.2,0.1,2.5-0.5,4
		C554.7,194.7,553.8,195.7,552.6,196.1z"/>
</g>
</svg>
