<?xml version="1.0" encoding="utf-8"?>
<svg version="1.1" xmlns="http://www.w3.org/2000/svg" xmlns:xlink="http://www.w3.org/1999/xlink" x="0px" y="0px" viewBox="0 0 290 500" xml:space="preserve">
	<path d="M50.7,0h188.6c14,0,26.6,5.7,35.8,14.9c9.2,9.2,14.9,21.9,14.9,35.8v398.5c0,14-5.7,26.7-14.9,35.8 c-9.2,9.2-21.9,14.9-35.8,14.9H50.7c-14,0-26.6-5.7-35.8-14.9C5.7,475.9,0,463.2,0,449.3V50.7c0-14,5.7-26.7,14.9-35.8 S36.8,0,50.7,0L50.7,0z M117.7,459.8c-3.4,0-6.1-2.7-6.1-6.1s2.7-6.1,6.1-6.1h55.8c3.4,0,6.1,2.7,6.1,6.1s-2.7,6.1-6.1,6.1H117.7 L117.7,459.8z M112.5,29.1c5.3,0,9.7,4.4,9.7,9.7s-4.4,9.7-9.7,9.7s-9.7-4.4-9.7-9.7C102.8,33.5,107.1,29.1,112.5,29.1L112.5,29.1z M145,29.1c5.3,0,9.7,4.4,9.7,9.7s-4.4,9.7-9.7,9.7c-5.4,0-9.7-4.4-9.7-9.7S139.7,29.1,145,29.1L145,29.1z M177.5,29.1 c5.3,0,9.7,4.4,9.7,9.7s-4.4,9.7-9.7,9.7c-5.4,0-9.7-4.4-9.7-9.7S172.2,29.1,177.5,29.1L177.5,29.1z M12.2,404h265.6V78.2H12.2V404 L12.2,404z M277.8,416.2H12.2v33c0,10.6,4.4,20.2,11.3,27.2c7,7,16.6,11.3,27.2,11.3h188.6c10.6,0,20.2-4.4,27.2-11.3 c7-7,11.3-16.6,11.3-27.2L277.8,416.2L277.8,416.2z M12.2,66h265.6V50.7c0-10.6-4.4-20.2-11.3-27.2c-7-7-16.6-11.3-27.3-11.3H50.7 c-10.6,0-20.2,4.3-27.2,11.3S12.2,40.2,12.2,50.7V66L12.2,66z"/>
</svg>